<svg width="25" height="25" viewBox="0 0 25 25">
  <path d="M18.2286 20.3946L16.0143 7.16248C15.9565 6.81536 15.8308 6.48304 15.6445 6.18451C15.4582 5.88597 15.2149 5.62707 14.9285 5.4226C14.6421 5.21813 14.3183 5.07209 13.9754 4.99283C13.6326 4.91358 13.2775 4.90265 12.9304 4.96069L4.06073 6.44462C3.71378 6.50265 3.38165 6.62845 3.08332 6.81483C2.78498 7.00122 2.52628 7.24455 2.32199 7.53092C2.1177 7.8173 1.97182 8.1411 1.89267 8.48386C1.81353 8.82661 1.80268 9.1816 1.86073 9.52855L4.07323 22.7643C4.13126 23.1112 4.25706 23.4433 4.44344 23.7417C4.62983 24.04 4.87316 24.2987 5.15953 24.503C5.44591 24.7073 5.76971 24.8532 6.11247 24.9323C6.45522 25.0115 6.81021 25.0223 7.15716 24.9643L16.0286 23.4785C16.3755 23.4205 16.7077 23.2947 17.006 23.1083C17.3043 22.9219 17.563 22.6786 17.7673 22.3922C17.9716 22.1059 18.1175 21.7821 18.1966 21.4393C18.2758 21.0966 18.2866 20.7416 18.2286 20.3946ZM11.4572 18.9661L8.33573 19.4875C8.26194 19.4996 8.18729 19.5055 8.11252 19.5053C7.77626 19.5053 7.45231 19.3788 7.20504 19.1509C6.95776 18.923 6.80525 18.6105 6.77781 18.2753C6.75037 17.9402 6.85001 17.607 7.05692 17.3419C7.26383 17.0769 7.56288 16.8993 7.89466 16.8446L11.0161 16.3232C11.3666 16.2647 11.7259 16.3478 12.0151 16.5543C12.3042 16.7607 12.4996 17.0736 12.5581 17.4241C12.6165 17.7745 12.5334 18.1339 12.327 18.4231C12.1205 18.7122 11.8076 18.9076 11.4572 18.9661ZM11.8054 12.3982L6.99644 13.2018C6.92266 13.2138 6.848 13.2198 6.77323 13.2196C6.43022 13.2298 6.0964 13.1079 5.84065 12.8791C5.58489 12.6503 5.42673 12.332 5.39878 11.99C5.37083 11.648 5.47523 11.3083 5.69045 11.041C5.90566 10.7737 6.21526 10.5992 6.55537 10.5535L11.3643 9.74998C11.5399 9.7159 11.7205 9.71733 11.8955 9.75418C12.0705 9.79102 12.2363 9.86255 12.3832 9.96453C12.5301 10.0665 12.6551 10.1969 12.7508 10.3479C12.8466 10.499 12.911 10.6677 12.9405 10.8441C12.97 11.0205 12.9638 11.201 12.9224 11.375C12.8809 11.549 12.8051 11.7129 12.6993 11.857C12.5935 12.0012 12.4599 12.1228 12.3063 12.2145C12.1528 12.3062 11.9825 12.3662 11.8054 12.391V12.3982Z" fill="#333333" fill-opacity="1"></path>
  <path d="M21.2822 18.7625H21.2286C21.0528 18.7556 20.8801 18.7141 20.7204 18.6405C20.5607 18.5668 20.417 18.4624 20.2976 18.3332C20.1782 18.2041 20.0854 18.0526 20.0246 17.8876C19.9637 17.7226 19.9359 17.5471 19.9429 17.3714L20.4786 3.62138C20.4829 3.50356 20.4405 3.38879 20.3606 3.30214C20.2806 3.21549 20.1696 3.16399 20.0518 3.15888L9.25894 2.67853C8.90413 2.66413 8.56951 2.50959 8.32849 2.24881C8.08746 1.98803 7.9597 1.6423 7.97323 1.28745C7.99038 0.93346 8.14569 0.600312 8.40579 0.359576C8.66589 0.11884 9.01004 -0.0102793 9.3643 -4.52828e-05L20.5464 0.435669C21.2719 0.465397 21.9559 0.781521 22.4486 1.31475C22.9414 1.84798 23.2026 2.55481 23.175 3.28031L22.6197 17.475C22.6067 17.8209 22.4601 18.1484 22.2107 18.3885C21.9612 18.6287 21.6284 18.7627 21.2822 18.7625Z" fill="#333333" fill-opacity="1"></path>
</svg>