<svg width="40" height="21" viewBox="0 0 40 21" fill="none" xmlns="http://www.w3.org/2000/svg">
<path d="M9.41846 18.3343H7.14874C6.47977 18.3343 5.95415 18.8517 5.95415 19.4591C5.95415 20.089 6.50366 20.5839 7.14874 20.5839H9.39457C10.183 20.5839 10.5653 20.0215 10.5653 19.4591C10.5892 18.8967 10.183 18.3343 9.41846 18.3343ZM16.6099 16.0623H10.7803C10.8042 16.0623 10.8281 16.0623 10.8281 16.0623H16.6577C16.6338 16.0623 16.6338 16.0623 16.6099 16.0623ZM6.02583 13.8127C5.35685 13.8127 4.83123 14.3301 4.83123 14.9375C4.83123 15.5673 5.38075 16.0623 6.02583 16.0623C6.6948 16.0623 7.22042 15.5449 7.22042 14.9375C7.22042 14.3076 6.6948 13.8127 6.02583 13.8127ZM3.80388 9.26852H1.53416C0.865189 9.26852 0.339569 9.78592 0.339569 10.3933C0.339569 11.0232 0.889081 11.5181 1.53416 11.5181H3.77999C4.56842 11.5181 4.95069 10.9557 4.95069 10.3933C4.95069 9.83091 4.56842 9.26852 3.80388 9.26852ZM7.53101 4.74686C6.86204 4.74686 6.33642 5.26426 6.33642 5.87165C6.33642 6.50153 6.88593 6.99644 7.53101 6.99644C8.19998 6.99644 8.7256 6.47903 8.7256 5.87165C8.7256 5.24176 8.19998 4.74686 7.53101 4.74686ZM11.8554 0.202698C11.1865 0.202698 10.6608 0.720102 10.6608 1.32749C10.6608 1.95737 11.2103 2.45228 11.8554 2.45228C12.5244 2.45228 13.05 1.93488 13.05 1.32749C13.0739 0.697606 12.5244 0.202698 11.8554 0.202698Z" fill="#333"/>
<path d="M29.2964 0.202698H28.938C30.5866 0.202698 32.1395 0.517491 33.5253 1.05714C32.3068 0.517491 30.8972 0.202698 29.2964 0.202698Z" fill="#333"/>
<path d="M33.5253 1.05754C32.1396 0.495144 30.5866 0.202698 28.9381 0.202698H16.7055C16.0843 0.202698 15.5109 0.630118 15.4631 1.23751C15.3914 1.91238 15.9648 2.47478 16.6577 2.47478H17.1355C18.6646 2.47478 18.6646 4.74685 17.1355 4.74685H12.4288C11.8076 4.74685 11.2342 5.17428 11.1864 5.78166C11.1148 6.45654 11.6882 7.01893 12.381 7.01893H15.1525C16.6816 7.01893 16.6816 9.29101 15.1525 9.29101H8.63002C8.00883 9.29101 7.43542 9.71843 7.38764 10.3033C7.31596 10.9782 7.86548 11.5406 8.58223 11.5406H11.7837C13.3128 11.5406 13.3128 13.8127 11.7837 13.8127H10.8281C10.1591 13.8127 9.63347 14.3301 9.63347 14.9375C9.63347 15.5449 10.1352 16.0398 10.7803 16.0623H16.6099C16.6338 16.0623 16.6577 16.0623 16.6816 16.0623C18.139 16.1297 18.1151 18.3343 16.6099 18.3343H14.1729C13.4801 18.3343 12.9067 18.8967 12.9783 19.5716C13.0261 20.1565 13.5995 20.6064 14.2207 20.6064H26.2622C26.6445 20.6064 28.4124 20.6514 28.9381 20.6514C35.2216 20.6514 40 16.2422 40 10.4158C40 6.1191 37.3958 2.60975 33.5253 1.05754ZM24.6375 10.4158C24.6375 8.05374 26.4533 6.34406 28.9381 6.34406C31.4228 6.34406 33.2625 8.03125 33.2625 10.4158C33.2625 12.8229 31.4467 14.4875 28.9381 14.4875C26.4533 14.4651 24.6375 12.8004 24.6375 10.4158Z" fill="#333"/>
</svg>