<svg width="17" height="17" viewBox="0 0 17 17" fill="none" xmlns="http://www.w3.org/2000/svg">
<path d="M0.0348404 1.60655C0.0261303 1.45832 0 1.36241 0 1.26649C0 0.856682 0 0.455589 0 0.00217985C0.8623 0.00217985 1.68105 -0.00653956 2.50851 0.0108993C2.59561 0.0108993 2.71755 0.14169 2.76981 0.237604C2.95272 0.58638 3.13564 0.935157 3.275 1.29265C3.37952 1.57167 3.55372 1.63271 3.83244 1.63271C7.53424 1.62399 11.236 1.62399 14.9291 1.62399C15.0423 1.62399 15.1643 1.62399 15.2775 1.62399C16.2269 1.63271 16.5666 2.18203 16.1137 3.01038C15.7217 3.73409 15.3211 4.4578 14.9291 5.18151C14.4152 6.10577 13.8926 7.02131 13.3961 7.963C13.0216 8.67799 12.4467 8.97445 11.6628 8.97445C9.8337 8.96574 8.00458 8.98317 6.17546 8.96574C5.87061 8.96574 5.6964 9.06165 5.57446 9.33195C5.44381 9.61969 5.2609 9.88999 5.11283 10.169C4.94734 10.4829 5.02573 10.605 5.39155 10.6311C5.49607 10.6399 5.59188 10.6311 5.6964 10.6311C8.49235 10.6311 11.297 10.6311 14.0929 10.6311C14.2671 10.6311 14.4413 10.6311 14.6417 10.6311C14.6417 11.163 14.6417 11.66 14.6417 12.2268C14.4936 12.2268 14.3368 12.2268 14.1888 12.2268C11.1576 12.2268 8.12652 12.1832 5.09541 12.2442C3.72792 12.2791 2.7611 10.9014 3.57114 9.64585C3.8847 9.15756 4.12859 8.6344 4.41602 8.12867C4.53796 7.92812 4.55538 7.76246 4.45086 7.53575C3.55372 5.68724 2.674 3.83 1.8117 1.96405C1.68105 1.67631 1.52427 1.58039 1.21941 1.59783C0.827459 1.62399 0.444215 1.60655 0.0348404 1.60655Z" fill="#23A334"/>
<path d="M6.50647 14.7307C6.49776 15.6462 5.78353 16.3351 4.86026 16.3263C3.98925 16.3176 3.27502 15.5852 3.27502 14.7045C3.27502 13.8064 4.00667 13.0914 4.91252 13.0914C5.82708 13.0914 6.51518 13.7977 6.50647 14.7307Z" fill="#23A334"/>
<path d="M11.4537 14.7132C11.4537 13.7889 12.1505 13.0827 13.0651 13.0914C13.971 13.0914 14.6852 13.8151 14.6852 14.7219C14.6765 15.6026 13.971 16.3176 13.0825 16.3263C12.168 16.3263 11.4624 15.6287 11.4537 14.7132Z" fill="#23A334"/>
</svg>
