<svg width="20" height="18" viewBox="0 0 20 18" fill="none" xmlns="http://www.w3.org/2000/svg">
<path d="M9.55715 17.8791C7.72719 17.8508 5.91203 17.6858 4.13139 17.2756C3.18435 17.0587 2.26691 16.7758 1.41359 16.3138C1.03378 16.1111 0.683575 15.8754 0.402423 15.5548C0.313638 15.4558 0.234718 15.3426 0.165662 15.2295C-0.0168401 14.9372 -0.0415026 14.6213 0.0571475 14.3007C0.224853 13.7491 0.39749 13.1975 0.579993 12.6553C0.67371 12.3772 0.880875 12.1697 1.1127 11.9858C1.69967 11.5238 2.36556 11.1844 3.04131 10.8591C3.93903 10.43 4.87127 10.0906 5.80844 9.75115C5.88736 9.72286 5.92682 9.75586 5.97615 9.79829C6.26717 10.034 6.54832 10.2792 6.8492 10.496C7.92942 11.2598 9.14775 11.472 10.4401 11.2362C11.3427 11.0712 12.1023 10.6139 12.7731 10.0152C12.8373 9.95387 12.9112 9.90201 12.9704 9.83601C13.0494 9.74172 13.1283 9.737 13.2467 9.77472C14.6376 10.2509 15.9743 10.8308 17.2469 11.5427C17.3752 11.6134 17.4935 11.6935 17.6169 11.7737C18.0904 12.0801 18.4159 12.4903 18.5688 13.0183C18.7119 13.4945 18.85 13.9707 18.9733 14.4516C19.0621 14.7957 18.9437 15.1116 18.7316 15.3898C18.4504 15.7669 18.0657 16.0357 17.6563 16.2667C16.8227 16.7334 15.9201 17.0257 14.9878 17.2567C13.9471 17.516 12.8915 17.681 11.8212 17.7565C11.0665 17.8083 10.3118 17.8413 9.55715 17.8791Z" fill="#23A534"/>
<path d="M14.1147 4.78669C14.021 6.57351 13.3009 8.22361 11.7422 9.48711C11.3279 9.82185 10.8691 10.1094 10.3216 10.2179C9.24141 10.43 8.25491 10.2509 7.37199 9.5814C6.29177 8.75164 5.59629 7.68615 5.18196 6.4415C4.92547 5.67303 4.82682 4.8857 4.91067 4.07951C5.10797 2.15596 6.62225 0.520011 8.59525 0.100415C9.8925 -0.173029 11.0714 0.123988 12.122 0.845316C13.4686 1.76937 14.095 3.07059 14.1147 4.78669Z" fill="#23A534"/>
</svg>
