<svg width="23" height="25" viewBox="0 0 23 25" fill="none" xmlns="http://www.w3.org/2000/svg">
<path d="M22.9911 22.3725C22.5232 22.8461 22.0605 23.3251 21.5926 23.7987C21.4886 23.9088 21.3742 24.0134 21.2806 24.1291C21.1195 24.3273 20.9947 24.3273 20.8127 24.1346C19.5546 22.791 18.2861 21.453 17.0227 20.1149C15.7958 18.8154 14.5688 17.5159 13.3367 16.2164C13.2691 16.1448 13.1963 16.0842 13.1339 16.0346C12.6764 16.2934 12.2449 16.5578 11.7978 16.789C10.4721 17.4718 9.06837 17.6976 7.60748 17.5654C4.96643 17.3342 2.91286 16.0016 1.40517 13.7275C0.750108 12.7418 0.349791 11.624 0.136636 10.4291C-0.0245306 9.54258 -0.0349284 8.65605 0.0482542 7.77502C0.141835 6.8114 0.401781 5.87531 0.807296 4.99428C1.39477 3.7223 2.2214 2.65406 3.28198 1.80056C4.21259 1.05169 5.24717 0.528579 6.39613 0.258764C7.12398 0.0880655 7.86223 -0.038582 8.60567 0.0109757C11.5431 0.214713 13.8306 1.60784 15.4059 4.25092C15.9725 5.20353 16.3105 6.24974 16.4924 7.36204C16.7264 8.79371 16.6068 10.1868 16.1909 11.5634C15.9673 12.3123 15.6502 13.0061 15.2395 13.6559C15.1043 13.8761 15.1303 13.9973 15.2915 14.168C17.7766 16.7945 20.2564 19.4211 22.7415 22.0477C22.8143 22.1247 22.9131 22.1743 22.9963 22.2349C22.9963 22.2789 22.9963 22.323 22.9911 22.3725ZM8.33013 2.96241C5.27836 2.86881 2.74129 5.56695 2.74649 8.79922C2.75169 12.1141 5.18998 14.5644 8.05978 14.6966C11.3039 14.8398 13.8358 12.1086 13.8618 8.85428C13.8878 5.63303 11.3559 2.87982 8.33013 2.96241Z" fill="#23A334"/>
</svg>
