<svg width="22" height="23" viewBox="0 0 22 23" fill="none" xmlns="http://www.w3.org/2000/svg">
<path d="M19.1084 19.532C19.0524 19.513 18.9359 19.4845 18.8333 19.4371C18.0175 19.105 17.2063 18.7729 16.3952 18.4361C16.2367 18.3696 16.1248 18.3839 15.9756 18.4788C15.4768 18.7966 14.964 19.0955 14.4466 19.3802C14.3114 19.4561 14.2368 19.5225 14.2135 19.6885C14.1016 20.5757 13.9711 21.4581 13.8545 22.3406C13.7892 22.834 13.6074 23 13.1226 23C11.7101 23 10.2929 23 8.88037 22.9953C8.39554 22.9953 8.23238 22.8434 8.16245 22.35C8.03658 21.4486 7.91537 20.552 7.78018 19.6553C7.7662 19.5604 7.67762 19.4513 7.59371 19.3991C7.0576 19.067 6.51683 18.7444 5.9714 18.4313C5.89215 18.3886 5.76628 18.3791 5.68237 18.4123C4.83859 18.7492 3.99946 19.1002 3.15567 19.4418C2.74077 19.6126 2.52167 19.5367 2.2979 19.1477C1.566 17.8905 0.848084 16.6285 0.134828 15.3571C-0.0842766 14.968 -0.028335 14.7261 0.311976 14.4509C1.02057 13.8863 1.72916 13.317 2.43776 12.7572C2.54964 12.6718 2.58227 12.5864 2.57761 12.4394C2.56363 11.8179 2.56363 11.1916 2.57761 10.5701C2.58227 10.4278 2.5543 10.3424 2.44242 10.2523C1.73383 9.6972 1.03456 9.13263 0.330624 8.57281C-0.0376586 8.27867 -0.0936002 8.04146 0.13949 7.62871C0.862069 6.34777 1.58931 5.06683 2.31655 3.79064C2.49836 3.47752 2.74544 3.39212 3.09041 3.53445C3.93886 3.87603 4.79197 4.2271 5.63575 4.58292C5.78027 4.6446 5.87817 4.62562 6.01336 4.53548C6.51217 4.21762 7.02031 3.91873 7.53777 3.62933C7.67762 3.54868 7.76153 3.48226 7.78484 3.30198C7.89673 2.4243 8.02726 1.55136 8.1438 0.67368C8.21373 0.161304 8.38622 0 8.88969 0C10.2882 0 11.6868 0 13.0853 0.00474422C13.6121 0.00474422 13.7799 0.151815 13.8498 0.678424C13.9711 1.57983 14.0969 2.47649 14.2275 3.37789C14.2368 3.4538 14.3114 3.54394 14.3766 3.58189C14.9267 3.91873 15.4815 4.24608 16.0456 4.56869C16.1248 4.61139 16.2507 4.61613 16.3392 4.58292C17.183 4.24608 18.0222 3.89501 18.8659 3.55342C19.2762 3.38738 19.5046 3.47277 19.7237 3.85705C20.4323 5.10953 21.1456 6.362 21.8542 7.61448C22.0919 8.03672 22.0453 8.27393 21.6677 8.57756C20.9777 9.12789 20.2878 9.68296 19.5932 10.2238C19.4487 10.3329 19.4207 10.4468 19.4254 10.6223C19.4393 11.2296 19.4207 11.8368 19.43 12.4441C19.43 12.5437 19.4813 12.6766 19.5512 12.7382C20.2365 13.2981 20.9265 13.8436 21.6211 14.394C22.0593 14.745 22.1012 14.9491 21.8215 15.4424C21.1223 16.6807 20.4137 17.9189 19.7144 19.1572C19.5885 19.3802 19.43 19.532 19.1084 19.532ZM14.9594 11.5C14.9407 9.23226 13.1599 7.45792 10.9269 7.48164C8.79179 7.50062 7.02963 9.33663 7.04828 11.5142C7.06693 13.763 8.83841 15.5468 11.0341 15.5373C13.1925 15.5231 14.978 13.6918 14.9594 11.5Z" fill="#23A334"/>
</svg>
