<svg width="20" height="20" viewBox="0 0 20 20" fill="none" xmlns="http://www.w3.org/2000/svg">
<g clip-path="url(#clip0)">
<path d="M0.0410342 1.88862C0.0307757 1.71404 0 1.60107 0 1.48811C0 1.00544 0 0.533043 0 -0.000972657C1.0156 -0.000972657 1.9799 -0.0112422 2.95447 0.00929687C3.05705 0.00929687 3.20067 0.16334 3.26222 0.276305C3.47765 0.687086 3.69308 1.09787 3.85722 1.51892C3.98032 1.84754 4.18549 1.91943 4.51377 1.91943C8.87365 1.90916 13.2335 1.90916 17.5832 1.90916C17.7165 1.90916 17.8602 1.90916 17.9935 1.90916C19.1117 1.91943 19.5118 2.56641 18.9783 3.54201C18.5167 4.39439 18.0448 5.24676 17.5832 6.09913C16.9779 7.1877 16.3624 8.266 15.7777 9.37511C15.3365 10.2172 14.6595 10.5664 13.7362 10.5664C11.5819 10.5561 9.42762 10.5766 7.27332 10.5561C6.91427 10.5561 6.7091 10.6691 6.56548 10.9874C6.4116 11.3263 6.19617 11.6447 6.02177 11.9733C5.82686 12.343 5.91919 12.4868 6.35005 12.5176C6.47315 12.5279 6.586 12.5176 6.7091 12.5176C10.0021 12.5176 13.3054 12.5176 16.5984 12.5176C16.8035 12.5176 17.0087 12.5176 17.2446 12.5176C17.2446 13.144 17.2446 13.7294 17.2446 14.3969C17.0702 14.3969 16.8856 14.3969 16.7112 14.3969C13.1412 14.3969 9.57124 14.3456 6.00126 14.4174C4.39066 14.4585 3.25196 12.8359 4.20601 11.3571C4.57532 10.782 4.86256 10.1659 5.20109 9.57023C5.34471 9.33403 5.36523 9.13891 5.24212 8.8719C4.18549 6.69476 3.14938 4.50735 2.13378 2.30967C1.9799 1.97078 1.79525 1.85781 1.4362 1.87835C0.974563 1.90916 0.523187 1.88862 0.0410342 1.88862Z" fill="white"/>
<path d="M7.6631 17.3452C7.65284 18.4235 6.81164 19.2348 5.72424 19.2245C4.69838 19.2143 3.85718 18.3516 3.85718 17.3144C3.85718 16.2567 4.7189 15.4146 5.78579 15.4146C6.86294 15.4146 7.67336 16.2464 7.6631 17.3452Z" fill="white"/>
<path d="M13.49 17.3247C13.49 16.2361 14.3107 15.4043 15.3878 15.4145C16.4547 15.4145 17.2959 16.2669 17.2959 17.3349C17.2857 18.3721 16.4547 19.2142 15.4083 19.2245C14.3312 19.2245 13.5002 18.403 13.49 17.3247Z" fill="white"/>
</g>
<defs>
<clipPath id="clip0">
<rect width="19.2143" height="19.2143" fill="white"/>
</clipPath>
</defs>
</svg>
