<svg width="22" height="22" viewBox="0 0 22 22" fill="none" xmlns="http://www.w3.org/2000/svg">
<path d="M11.418 2.74978C10.766 5.03175 11.1135 7.09495 12.692 8.8579C14.2662 10.6123 16.2736 11.187 18.6114 10.7838C18.5685 10.9426 18.5299 11.0841 18.487 11.2214C18.3755 11.5817 18.2854 11.9549 18.1481 12.3023C17.9465 12.8084 17.6463 13.2374 17.0843 13.4004C16.9342 13.4433 16.7755 13.4647 16.6211 13.4647C13.4855 13.4647 10.3457 13.4647 7.21013 13.4604C7.04284 13.4604 6.87126 13.4604 6.66108 13.4604C6.92703 14.0524 7.27018 14.5199 7.84496 14.743C8.12377 14.8502 8.4369 14.9231 8.73716 14.9274C11.195 14.9446 13.6528 14.936 16.1149 14.9403C16.9986 14.9446 17.4875 15.781 17.0843 16.5703C16.8999 16.9349 16.5911 17.0936 16.1964 17.0979C15.5745 17.1021 14.9525 17.1021 14.3305 17.1021C12.5161 17.1021 10.6974 17.0807 8.883 17.1107C7.20155 17.1365 5.97907 16.3987 5.12548 14.9918C4.49064 13.9494 4.17752 12.7956 3.95447 11.6074C3.55126 9.45413 3.1309 7.30085 2.71912 5.14756C2.57757 4.41836 2.43602 3.68917 2.30734 2.95568C2.2816 2.80555 2.20868 2.74121 2.07571 2.69402C1.59529 2.54389 1.11488 2.3809 0.638756 2.19645C0.214105 2.03345 -0.0346809 1.59164 0.00392374 1.11123C0.0425284 0.622239 0.347076 0.240482 0.801754 0.133246C0.90041 0.111799 1.01622 0.10751 1.11488 0.137536C1.84408 0.360585 2.57328 0.592213 3.30248 0.815262C3.67137 0.926787 3.92015 1.1627 4.04455 1.5273C4.16036 1.86617 4.27617 2.20503 4.37483 2.54389C4.42201 2.70689 4.50351 2.7455 4.66651 2.7455C6.85411 2.73692 9.04171 2.73692 11.2293 2.73692C11.2851 2.73692 11.3408 2.7455 11.418 2.74978Z" fill="#ffffff"/>
<path d="M22.0001 4.73979C22.0044 7.35204 19.8854 9.48817 17.286 9.49675C14.6566 9.50103 12.5291 7.37349 12.5248 4.73979C12.5248 2.12755 14.6523 0 17.256 0C19.8854 0 21.9958 2.1061 22.0001 4.73979ZM16.3852 5.19876C16.3638 5.18589 16.3466 5.1816 16.3381 5.17302C16.1064 4.9414 15.8748 4.70977 15.6389 4.47385C15.3043 4.13928 15.0984 4.13499 14.7724 4.46098C14.7252 4.50817 14.6781 4.55106 14.6352 4.59395C14.3263 4.90708 14.3263 5.13871 14.6395 5.45612C15.0984 5.91509 15.5574 6.37835 16.0164 6.83731C16.2523 7.07752 16.5053 7.07752 16.7456 6.8416C17.5991 5.98801 18.4527 5.13442 19.3063 4.27654C19.5294 4.05349 19.7567 3.83902 19.9669 3.6031C20.1857 3.35861 20.1685 3.11411 19.9369 2.88248C19.8682 2.80956 19.7953 2.74093 19.7224 2.6723C19.4479 2.39778 19.2248 2.38491 18.946 2.65514C18.6972 2.89106 18.4613 3.13985 18.2168 3.38005C17.612 3.98486 17.0029 4.58537 16.3852 5.19876Z" fill="#ffffff"/>
<path d="M15.6003 21.4687C14.6995 21.4773 13.9532 20.7481 13.9489 19.8473C13.9446 18.9508 14.6781 18.2045 15.5746 18.1959C16.4582 18.183 17.2088 18.9165 17.2217 19.8044C17.2303 20.7267 16.5182 21.4559 15.6003 21.4687Z" fill="#ffffff"/>
<path d="M9.0804 21.4683C8.1882 21.4641 7.45471 20.7306 7.459 19.8427C7.459 18.929 8.20536 18.1827 9.10614 18.1912C10.0069 18.1998 10.7318 18.9419 10.7275 19.8427C10.7232 20.7477 9.99404 21.4683 9.0804 21.4683Z" fill="#ffffff"/>
</svg>
