<?xml version="1.0" encoding="utf-8"?>
<!-- Generator: Adobe Illustrator 22.1.0, SVG Export Plug-In . SVG Version: 6.00 Build 0)  -->
<svg version="1.1" id="Layer_1" xmlns="http://www.w3.org/2000/svg" xmlns:xlink="http://www.w3.org/1999/xlink" x="0px" y="0px"
	 viewBox="0 0 566.7 136.9" style="enable-background:new 0 0 566.7 136.9;" xml:space="preserve">
<style type="text/css">
	.st0{fill:#EFEAE4;}
	.st1{fill:#23A534;}
</style>
<g>
	<g>
		<g>
			<path class="st1" d="M67.2,18.4c3.1,0,5.5,2.5,5.5,5.4v46C72.7,95,60.8,106,38.3,106C19.4,106,6.3,95,3.9,80.2
				c-0.4-2.3,1.2-4.6,3.6-5l18.9-3.4c1.6-0.4,3.2,0.6,3.7,2.2c1,2.8,3.2,5.3,7.4,5.3c6.1,0,7.6-4.6,7.6-9.3v-46c0-3,2.5-5.4,5.4-5.4
				H67.2z"/>
			<path class="st1" d="M153.4,18.4c3.1,0,5.5,2.5,5.5,5.4v45.9c0,25.6-15.9,36.3-39.4,36.3c-23.4,0-39.2-10.7-39.2-36.3V23.9
				c0-3,2.5-5.4,5.5-5.4h16.7c3,0,5.4,2.5,5.4,5.4v42.9c0,7.9,4.2,12.4,11.6,12.4c7.5,0,11.7-4.6,11.7-12.4V23.9
				c0-3,2.5-5.4,5.4-5.4H153.4z"/>
			<path class="st1" d="M233,77.1c0,15.4-11.2,28.9-34.7,28.9c-14.6,0-30-4.7-35.4-18.3c-1-2.5,0.2-5,2.7-5.9l15-4.6
				c1.8-0.6,3.8,0.1,4.9,1.7c2,2.8,6.5,4.8,11.4,4.8c4.8,0,8.5-2,8.5-5.2c0-4.3-5.3-4.6-14-6.6c-15.7-3.8-27.2-9.3-27.2-27.1
				c0-16.9,14.8-28,33.8-28c13.4,0,25.7,6,30.4,17.8c1,2.6-0.4,5.3-3,5.9l-15,3.7c-1.6,0.4-3.4-0.1-4.4-1.6
				c-1.6-2.1-4.3-3.4-7.9-3.4c-4.9,0-7.5,2.1-7.5,5c0,4.1,6.4,4.6,13,6.4C224.8,56.5,233,62.6,233,77.1z"/>
			<path class="st1" d="M299.8,23.9v14.4c0,3.1-2.5,5.5-5.4,5.5h-14.6V99c0,3.1-2.5,5.5-5.5,5.5h-16.7c-3,0-5.4-2.5-5.4-5.5V43.8
				h-14.6c-3.1,0-5.5-2.5-5.5-5.5V23.9c0-3,2.5-5.4,5.5-5.4h56.9C297.3,18.4,299.8,20.9,299.8,23.9z"/>
		</g>
		<path class="st1" d="M352.9,56.3h34.2c3.1,0,5.6,2.5,5.6,5.5v40.7c0,2.5-2,4.5-4.5,4.5h-4.6c-2,0-3.8-1.4-4.3-3.4l-1.6-6
			c-6.5,6.8-15.9,10.9-28.1,10.9c-26.3,0-46.3-19.6-46.3-45.4c0-25.9,19.9-45.5,46.3-45.5c14,0,26.3,5.6,34.6,14.8
			c1.9,2,1.4,5.3-0.9,6.6l-16.2,10.8c-1.8,1.1-3.9,0.9-5.4-0.5c-3.3-2.8-7.4-4.3-12.2-4.3c-10.4,0-18.2,7.5-18.2,18.1
			c0,11.2,7.8,19.2,18.2,19.2c7.5,0,13-2.5,15.9-8h-12.7c-3,0-5.5-2.4-5.5-5.5v-7C347.3,58.8,349.8,56.3,352.9,56.3z"/>
		<g>
			<path class="st1" d="M436.8,98.5h-9.5c-2.8,0-5,2.3-5,5c0,2.8,2.3,5,5,5h9.4c3.3,0,4.9-2.5,4.9-5C441.6,101,440,98.5,436.8,98.5z
				 M466.8,88.4h-24.4c0.1,0,0.2,0,0.2,0h24.4C467,88.4,466.9,88.4,466.8,88.4z M422.5,78.3c-2.8,0-5,2.3-5,5c0,2.8,2.3,5,5,5
				c2.8,0,5-2.3,5-5C427.5,80.6,425.3,78.3,422.5,78.3z M413.2,58.2h-9.5c-2.8,0-5,2.3-5,5c0,2.8,2.3,5,5,5h9.4c3.3,0,4.9-2.5,4.9-5
				C418,60.7,416.4,58.2,413.2,58.2z M428.8,38c-2.8,0-5,2.3-5,5c0,2.8,2.3,5,5,5c2.8,0,5-2.3,5-5C433.8,40.3,431.6,38,428.8,38z
				 M446.9,17.8c-2.8,0-5,2.3-5,5c0,2.8,2.3,5,5,5c2.8,0,5-2.3,5-5C452,20.1,449.7,17.8,446.9,17.8z"/>
			<path class="st1" d="M519.9,17.8h-1.5c6.9,0,13.4,1.4,19.2,3.8C532.5,19.2,526.6,17.8,519.9,17.8z"/>
			<path class="st1" d="M537.6,21.7c-5.8-2.5-12.3-3.8-19.2-3.8h-51.2c-2.6,0-5,1.9-5.2,4.6c-0.3,3,2.1,5.5,5,5.5h2
				c6.4,0,6.4,10.1,0,10.1h-19.7c-2.6,0-5,1.9-5.2,4.6c-0.3,3,2.1,5.5,5,5.5h11.6c6.4,0,6.4,10.1,0,10.1h-27.3c-2.6,0-5,1.9-5.2,4.5
				c-0.3,3,2,5.5,5,5.5h13.4c6.4,0,6.4,10.1,0,10.1h-4c-2.8,0-5,2.3-5,5c0,2.7,2.1,4.9,4.8,5h24.4c0.1,0,0.2,0,0.3,0
				c6.1,0.3,6,10.1-0.3,10.1h-10.2c-2.9,0-5.3,2.5-5,5.5c0.2,2.6,2.6,4.6,5.2,4.6h50.4c1.6,0,9,0.2,11.2,0.2
				c26.3,0,46.3-19.6,46.3-45.5C564.7,44.2,553.8,28.6,537.6,21.7z M500.4,63.2c0-10.5,7.6-18.1,18-18.1c10.4,0,18.1,7.5,18.1,18.1
				c0,10.7-7.6,18.1-18.1,18.1C508,81.3,500.4,73.9,500.4,63.2z"/>
		</g>
	</g>
</g>
</svg>
