<svg width="134" height="22" viewBox="0 0 134 22" fill="none" xmlns="http://www.w3.org/2000/svg">
    <path d="M15.1382 1.33868C15.8788 1.33868 16.4522 1.90108 16.4522 2.55346V12.9015C16.4522 18.548 13.6091 21.045 8.23342 21.045C3.71787 21.045 0.588039 18.548 0.0146355 15.2411C-0.0809318 14.7237 0.301337 14.2063 0.874741 14.1163L5.3903 13.3515C5.77256 13.2615 6.15483 13.4864 6.27429 13.8464C6.51321 14.4763 7.03883 15.0387 8.04229 15.0387C9.49969 15.0387 9.85807 14.0038 9.85807 12.9465V2.55346C9.85807 1.87858 10.4554 1.33868 11.1482 1.33868H15.1382Z" fill="white" />
    <path d="M35.7329 1.33868C36.4735 1.33868 37.0469 1.90108 37.0469 2.55346V12.8791C37.0469 18.638 33.2481 21.045 27.6335 21.045C22.0429 21.045 18.2679 18.638 18.2679 12.8791V2.55346C18.2679 1.87858 18.8652 1.33868 19.582 1.33868H23.5719C24.2887 1.33868 24.8621 1.90108 24.8621 2.55346V12.2042C24.8621 13.9813 25.8655 14.9937 27.6335 14.9937C29.4254 14.9937 30.4289 13.9589 30.4289 12.2042V2.55346C30.4289 1.87858 31.0262 1.33868 31.719 1.33868H35.7329Z" fill="white" />
    <path d="M54.7508 14.5421C54.7508 18.0065 52.0749 21.0434 46.4603 21.0434C42.9721 21.0434 39.2928 19.9861 38.0026 16.9267C37.7637 16.3643 38.0504 15.8019 38.6477 15.5994L42.2315 14.5646C42.6615 14.4296 43.1394 14.5871 43.4022 14.947C43.88 15.5769 44.9551 16.0268 46.1258 16.0268C47.2726 16.0268 48.1566 15.5769 48.1566 14.857C48.1566 13.8897 46.8904 13.8222 44.8118 13.3723C41.0608 12.5175 38.3132 11.2802 38.3132 7.27595C38.3132 3.47415 41.8492 0.977112 46.3886 0.977112C49.5901 0.977112 52.5288 2.32686 53.6517 4.98137C53.8907 5.56626 53.5562 6.17365 52.935 6.30862L49.3512 7.14097C48.969 7.23095 48.5389 7.11847 48.3 6.78104C47.9177 6.30862 47.2726 6.01618 46.4125 6.01618C45.2418 6.01618 44.6206 6.48859 44.6206 7.14097C44.6206 8.0633 46.1497 8.17578 47.7266 8.5807C52.7916 9.88546 54.7508 11.2802 54.7508 14.5421Z" fill="white" />
    <path d="M70.7105 2.55346V5.79286C70.7105 6.49023 70.1132 7.03013 69.4204 7.03013H65.9322V19.4478C65.9322 20.1452 65.3349 20.6851 64.6181 20.6851H60.6282C59.9114 20.6851 59.338 20.1227 59.338 19.4478V7.03013H55.8498C55.1092 7.03013 54.5358 6.46773 54.5358 5.79286V2.55346C54.5358 1.87858 55.1331 1.33868 55.8498 1.33868H69.4443C70.1132 1.33868 70.7105 1.90108 70.7105 2.55346Z" fill="white" />
    <path d="M83.3732 9.86433H91.5442C92.2848 9.86433 92.8821 10.4267 92.8821 11.1016V20.2574C92.8821 20.8198 92.4043 21.2697 91.807 21.2697H90.708C90.2301 21.2697 89.8001 20.9548 89.6806 20.5049L89.2984 19.1551C87.7454 20.6848 85.4996 21.6072 82.5848 21.6072C76.3012 21.6072 71.5228 17.198 71.5228 11.394C71.5228 5.56763 76.2773 1.15845 82.5848 1.15845C85.9296 1.15845 88.8683 2.41821 90.8513 4.48783C91.3053 4.93775 91.1858 5.68011 90.6363 5.97255L86.7658 8.4021C86.3358 8.64956 85.834 8.60457 85.4757 8.28962C84.6872 7.65974 83.7077 7.3223 82.5609 7.3223C80.0761 7.3223 78.2125 9.00949 78.2125 11.394C78.2125 13.9136 80.0761 15.7132 82.5609 15.7132C84.3527 15.7132 85.6668 15.1509 86.3597 13.9136H83.3732C82.6564 13.9136 82.0591 13.3737 82.0591 12.6763V11.1016C82.0591 10.4267 82.6564 9.86433 83.3732 9.86433Z" fill="white" />
    <path d="M103.418 19.3343H101.149C100.48 19.3343 99.9541 19.8517 99.9541 20.4591C99.9541 21.089 100.504 21.5839 101.149 21.5839H103.395C104.183 21.5839 104.565 21.0215 104.565 20.4591C104.589 19.8967 104.183 19.3343 103.418 19.3343ZM110.61 17.0623H104.78C104.804 17.0623 104.828 17.0623 104.828 17.0623H110.658C110.634 17.0623 110.634 17.0623 110.61 17.0623ZM100.026 14.8127C99.3569 14.8127 98.8312 15.3301 98.8312 15.9375C98.8312 16.5673 99.3807 17.0623 100.026 17.0623C100.695 17.0623 101.22 16.5449 101.22 15.9375C101.22 15.3076 100.695 14.8127 100.026 14.8127ZM97.8039 10.2685H95.5342C94.8652 10.2685 94.3396 10.7859 94.3396 11.3933C94.3396 12.0232 94.8891 12.5181 95.5342 12.5181H97.78C98.5684 12.5181 98.9507 11.9557 98.9507 11.3933C98.9507 10.8309 98.5684 10.2685 97.8039 10.2685ZM101.531 5.74686C100.862 5.74686 100.336 6.26426 100.336 6.87165C100.336 7.50153 100.886 7.99644 101.531 7.99644C102.2 7.99644 102.726 7.47903 102.726 6.87165C102.726 6.24176 102.2 5.74686 101.531 5.74686ZM105.855 1.2027C105.186 1.2027 104.661 1.7201 104.661 2.32749C104.661 2.95737 105.21 3.45228 105.855 3.45228C106.524 3.45228 107.05 2.93488 107.05 2.32749C107.074 1.69761 106.524 1.2027 105.855 1.2027Z" fill="white" />
    <path d="M123.296 1.2027H122.938C124.587 1.2027 126.14 1.51749 127.525 2.05714C126.307 1.51749 124.897 1.2027 123.296 1.2027Z" fill="white" />
    <path d="M127.525 2.05754C126.14 1.49514 124.587 1.2027 122.938 1.2027H110.705C110.084 1.2027 109.511 1.63012 109.463 2.23751C109.391 2.91238 109.965 3.47478 110.658 3.47478H111.136C112.665 3.47478 112.665 5.74685 111.136 5.74685H106.429C105.808 5.74685 105.234 6.17428 105.186 6.78166C105.115 7.45654 105.688 8.01893 106.381 8.01893H109.152C110.682 8.01893 110.682 10.291 109.152 10.291H102.63C102.009 10.291 101.435 10.7184 101.388 11.3033C101.316 11.9782 101.865 12.5406 102.582 12.5406H105.784C107.313 12.5406 107.313 14.8127 105.784 14.8127H104.828C104.159 14.8127 103.633 15.3301 103.633 15.9375C103.633 16.5449 104.135 17.0398 104.78 17.0623H110.61C110.634 17.0623 110.658 17.0623 110.682 17.0623C112.139 17.1297 112.115 19.3343 110.61 19.3343H108.173C107.48 19.3343 106.907 19.8967 106.978 20.5716C107.026 21.1565 107.6 21.6064 108.221 21.6064H120.262C120.644 21.6064 122.412 21.6514 122.938 21.6514C129.222 21.6514 134 17.2422 134 11.4158C134 7.1191 131.396 3.60975 127.525 2.05754ZM118.638 11.4158C118.638 9.05374 120.453 7.34406 122.938 7.34406C125.423 7.34406 127.263 9.03125 127.263 11.4158C127.263 13.8229 125.447 15.4875 122.938 15.4875C120.453 15.4651 118.638 13.8004 118.638 11.4158Z" fill="white" />
</svg>
