<svg width="90" height="71" viewBox="0 0 90 71" fill="none" xmlns="http://www.w3.org/2000/svg">
<path d="M21.5217 35.2173H9.78251C8.70251 35.2173 7.82593 36.0939 7.82593 37.1739V60.6522C7.82593 61.7322 8.70251 62.6087 9.78251 62.6087C10.8625 62.6087 11.7391 61.7322 11.7391 60.6522V39.1305H21.5217C22.6017 39.1305 23.4782 38.2539 23.4782 37.1739C23.4782 36.0939 22.6017 35.2173 21.5217 35.2173Z" fill="black"/>
<path d="M17.6087 46.9565H9.78251C8.70251 46.9565 7.82593 47.8331 7.82593 48.9131C7.82593 49.9931 8.70251 50.8697 9.78251 50.8697H17.6087C18.6887 50.8697 19.5653 49.9931 19.5653 48.9131C19.5653 47.8331 18.6887 46.9565 17.6087 46.9565Z" fill="black"/>
<path d="M34.0709 50.8696H35.2175C39.5337 50.8696 43.0437 47.3596 43.0437 43.0434C43.0437 38.7273 39.5337 35.2173 35.2175 35.2173H29.3479C28.2679 35.2173 27.3914 36.0939 27.3914 37.1739V48.8974C27.3914 48.9053 27.3914 48.9171 27.3914 48.9248V60.6522C27.3914 61.7322 28.2679 62.6087 29.3479 62.6087C30.4279 62.6087 31.3045 61.7322 31.3045 60.6522V53.636L39.7019 62.0374C40.0854 62.4169 40.5862 62.6087 41.0871 62.6087C41.588 62.6087 42.0888 62.4171 42.4685 62.0335C43.2315 61.2705 43.2315 60.03 42.4685 59.2669L34.0709 50.8696ZM31.3045 39.1305H35.2175C37.3775 39.1305 39.1305 40.8875 39.1305 43.0434C39.1305 45.1996 37.3775 46.9564 35.2175 46.9564H31.3045V39.1305Z" fill="black"/>
<path d="M60.6523 58.6956H50.8697V39.1305H60.6523C61.7323 39.1305 62.6089 38.2539 62.6089 37.1739C62.6089 36.0939 61.7323 35.2173 60.6523 35.2173H48.9131C47.8331 35.2173 46.9565 36.0939 46.9565 37.1739V60.6522C46.9565 61.7322 47.8331 62.6087 48.9131 62.6087H60.6523C61.7323 62.6087 62.6089 61.7322 62.6089 60.6522C62.6089 59.5722 61.7323 58.6956 60.6523 58.6956Z" fill="black"/>
<path d="M56.7392 46.9565H48.913C47.833 46.9565 46.9564 47.8331 46.9564 48.9131C46.9564 49.9931 47.833 50.8697 48.913 50.8697H56.7392C57.8192 50.8697 58.6958 49.9931 58.6958 48.9131C58.6958 47.8331 57.8192 46.9565 56.7392 46.9565Z" fill="black"/>
<path d="M80.2175 58.6956H70.4349V39.1305H80.2175C81.2975 39.1305 82.174 38.2539 82.174 37.1739C82.174 36.0939 81.2975 35.2173 80.2175 35.2173H68.4783C67.3983 35.2173 66.5217 36.0939 66.5217 37.1739V60.6522C66.5217 61.7322 67.3983 62.6087 68.4783 62.6087H80.2175C81.2975 62.6087 82.174 61.7322 82.174 60.6522C82.174 59.5722 81.2975 58.6956 80.2175 58.6956Z" fill="black"/>
<path d="M76.3045 46.9565H68.4783C67.3983 46.9565 66.5217 47.8331 66.5217 48.9131C66.5217 49.9931 67.3983 50.8697 68.4783 50.8697H76.3045C77.3845 50.8697 78.2611 49.9931 78.2611 48.9131C78.2611 47.8331 77.3845 46.9565 76.3045 46.9565Z" fill="black"/>
<path d="M80.2174 27.3916H9.78256C4.38659 27.3916 0 31.782 0 37.1742V60.6525C0 66.0446 4.38659 70.435 9.78256 70.435H80.2174C85.6136 70.435 90 66.0446 90 60.6525V37.1742C90.0002 31.782 85.6136 27.3916 80.2174 27.3916ZM86.087 60.6525C86.087 63.8886 83.4536 66.522 80.2174 66.522H9.78256C6.54641 66.522 3.91299 63.8886 3.91299 60.6525V37.1742C3.91299 33.938 6.54641 31.3046 9.78256 31.3046H80.2174C83.4536 31.3046 86.087 33.938 86.087 37.1742V60.6525Z" fill="#23A534"/>
<path d="M45 0C39.6038 0 35.2174 4.39044 35.2174 9.78256C35.2174 15.1747 39.604 19.5653 45 19.5653C50.3959 19.5653 54.7825 15.1749 54.7825 9.78274C54.7825 4.39062 50.3961 0 45 0ZM45 15.6523C41.7638 15.6523 39.1304 13.0189 39.1304 9.78274C39.1304 6.54659 41.7638 3.91317 45 3.91317C48.2361 3.91317 50.8695 6.54659 50.8695 9.78274C50.8695 13.0187 48.2361 15.6523 45 15.6523Z" fill="black"/>
<path d="M38.5551 8.40138C37.7921 7.63834 36.5516 7.63834 35.7885 8.40138L16.2234 27.9667C15.4604 28.7297 15.4604 29.9702 16.2234 30.7333C16.6069 31.1128 17.1077 31.3045 17.6086 31.3045C18.1096 31.3045 18.6103 31.1128 18.99 30.7331L38.5553 11.1678C39.3182 10.4049 39.3182 9.16443 38.5551 8.40138Z" fill="black"/>
<path d="M73.7726 27.9667L54.2075 8.40138C53.4445 7.63834 52.204 7.63834 51.4409 8.40138C50.6779 9.16443 50.6779 10.4049 51.4409 11.168L71.0062 30.7333C71.3898 31.1128 71.8905 31.3046 72.3915 31.3046C72.8924 31.3046 73.3931 31.113 73.7728 30.7333C74.5357 29.97 74.5357 28.7297 73.7726 27.9667Z" fill="black"/>
</svg>
