<svg width="80" height="90" viewBox="0 0 80 90" fill="none" xmlns="http://www.w3.org/2000/svg">
<path d="M77.0818 55.7227C78.3369 54.3217 79.1016 52.4725 79.1016 50.4492C79.1016 46.0881 75.5525 42.5391 71.1914 42.5391H55.8387C57.3592 37.9248 58.0078 31.8023 58.0078 29.1779V26.543C58.0078 20.7281 53.2758 15.9961 47.4609 15.9961H44.8242C43.6148 15.9961 42.5602 16.8188 42.2666 17.993L40.8305 23.7393C38.8178 31.7865 32.4281 40.6652 25.8152 42.2789C24.6568 39.3469 21.7969 37.2656 18.457 37.2656H2.63672C1.18125 37.2656 0 38.4469 0 39.9023V87.3633C0 88.8188 1.18125 90 2.63672 90H18.457C21.6018 90 24.3229 88.1561 25.5973 85.4912L34.657 88.5111C37.6189 89.499 40.7057 90 43.8293 90H65.918C70.2791 90 73.8281 86.451 73.8281 82.0899C73.8281 81.0615 73.6313 80.0772 73.2727 79.1754C76.6266 78.2596 79.1016 75.1852 79.1016 71.543C79.1016 69.5197 78.3369 67.6705 77.0818 66.2695C78.3369 64.8686 79.1016 63.0193 79.1016 60.9961C79.1016 58.9729 78.3369 57.1236 77.0818 55.7227ZM21.0938 82.0899C21.0938 83.5436 19.9107 84.7266 18.457 84.7266H5.27344V42.5391H18.457C19.9107 42.5391 21.0938 43.7221 21.0938 45.1758V82.0899ZM65.918 58.3594H71.1914C72.6451 58.3594 73.8281 59.5424 73.8281 60.9961C73.8281 62.4498 72.6451 63.6328 71.1914 63.6328H65.918C64.4625 63.6328 63.2813 64.8141 63.2813 66.2695C63.2813 67.725 64.4625 68.9063 65.918 68.9063H71.1914C72.6451 68.9063 73.8281 70.0893 73.8281 71.543C73.8281 72.9967 72.6451 74.1797 71.1914 74.1797H65.918C64.4625 74.1797 63.2813 75.3609 63.2813 76.8164C63.2813 78.2719 64.4625 79.4531 65.918 79.4531C67.3717 79.4531 68.5547 80.6361 68.5547 82.0899C68.5547 83.5436 67.3717 84.7266 65.918 84.7266H43.8293C41.2734 84.7266 38.7475 84.317 36.3234 83.5084L26.3672 80.1897V47.5629C30.5033 46.7771 34.5516 44.158 38.2061 39.8707C41.7744 35.6836 44.6678 30.1324 45.9457 25.0189L46.8826 21.2695H47.4609C50.3684 21.2695 52.7344 23.6355 52.7344 26.543V29.1779C52.7344 32.7182 51.627 39.5086 50.2102 42.5391H44.8242C43.3688 42.5391 42.1875 43.7203 42.1875 45.1758C42.1875 46.6313 43.3688 47.8125 44.8242 47.8125H71.1914C72.6451 47.8125 73.8281 48.9955 73.8281 50.4492C73.8281 51.9029 72.6451 53.0859 71.1914 53.0859H65.918C64.4625 53.0859 63.2813 54.2672 63.2813 55.7227C63.2813 57.1781 64.4625 58.3594 65.918 58.3594Z" fill="black"/>
<path d="M13.1836 79.4531C14.6398 79.4531 15.8203 78.2726 15.8203 76.8164C15.8203 75.3602 14.6398 74.1797 13.1836 74.1797C11.7274 74.1797 10.5469 75.3602 10.5469 76.8164C10.5469 78.2726 11.7274 79.4531 13.1836 79.4531Z" fill="black"/>
<path d="M50.0977 0C48.6415 0 47.4609 1.18055 47.4609 2.63672V8.08594C47.4609 9.54211 48.6415 10.7227 50.0977 10.7227C51.5538 10.7227 52.7344 9.54211 52.7344 8.08594V2.63672C52.7344 1.18055 51.5538 0 50.0977 0Z" fill="#23A534"/>
<path d="M38.9109 11.6276L35.1821 7.89876C34.1525 6.86903 32.4829 6.86903 31.4532 7.89876C30.4235 8.92849 30.4235 10.5979 31.4532 11.6276L35.1821 15.3565C36.2116 16.386 37.8813 16.3862 38.9109 15.3565C39.9406 14.3267 39.9406 12.6573 38.9109 11.6276Z" fill="#23A534"/>
<path d="M68.7421 7.89876C67.7125 6.86903 66.043 6.86903 65.0132 7.89876L61.2844 11.6274C60.2547 12.6572 60.2547 14.3266 61.2844 15.3563C62.3139 16.386 63.9835 16.3862 65.0132 15.3565L68.7421 11.6276C69.7718 10.5979 69.7718 8.92849 68.7421 7.89876Z" fill="#23A534"/>
</svg>
