<svg width="90" height="71" viewBox="0 0 90 71" fill="none" xmlns="http://www.w3.org/2000/svg">
<path d="M45.0086 1.33093C22.3782 -5.00455 0 12.1022 0 35.4632C0 58.869 22.419 75.9194 45.0086 69.5953C67.6705 75.9448 90 58.7771 90 35.4632C90 12.1232 67.6426 -5.01072 45.0086 1.33093ZM5.29412 35.4632C5.29412 18.6771 19.0835 5.04987 35.9386 5.32128C25.8515 11.5754 19.1183 22.7471 19.1183 35.4632C19.1183 48.1793 25.8515 59.351 35.9386 65.6051C19.0839 65.8765 5.29412 52.2496 5.29412 35.4632ZM54.5592 65.6098C37.9362 65.6098 24.4126 52.086 24.4126 35.4632C24.4126 18.8403 37.9362 5.31652 54.5592 5.31652C71.1822 5.31652 84.7059 18.8403 84.7059 35.4632C84.7059 52.086 71.1822 65.6098 54.5592 65.6098Z" fill="black"/>
<path d="M58.3115 32.8161H50.8069C48.5504 32.8161 46.7146 30.9805 46.7146 28.7239C46.7146 26.4598 48.5472 24.6316 50.8061 24.6316C50.8228 24.6317 50.8396 24.6316 50.8567 24.6317H58.0477C59.5617 24.6457 61.0537 25.3195 62.1425 26.4812C63.1422 27.5479 64.8176 27.6025 65.8841 26.6024C66.9506 25.6027 67.0052 23.9276 66.0055 22.8609C63.5015 20.1893 60.621 19.3376 57.2065 19.3376V16.1661C57.2065 14.7042 56.0213 13.519 54.5594 13.519C53.0975 13.519 51.9124 14.7042 51.9124 16.1661V19.3376C44.8842 19.3376 41.4207 23.9096 41.4207 28.7239C41.4207 33.8996 45.6314 38.1102 50.8071 38.1102H58.3117C60.5682 38.1102 62.4039 39.9459 62.4039 42.2024C62.4039 44.4665 60.5712 46.2947 58.3124 46.2947C58.2957 46.2947 58.2789 46.2946 58.2618 46.2946H50.4162C49.3262 46.2843 48.2238 45.9139 47.2278 45.2229C46.0265 44.3894 44.3772 44.6878 43.5439 45.8887C42.7107 47.0899 43.0087 48.739 44.2098 49.5725C47.4462 51.8179 50.2101 51.5887 51.912 51.5887V54.7602C51.912 56.2221 53.0972 57.4073 54.5591 57.4073C56.0209 57.4073 57.2061 56.2221 57.2061 54.7602V51.5887C64.3179 51.5887 67.6978 46.9295 67.6978 42.2024C67.698 37.0267 63.4872 32.8161 58.3115 32.8161Z" fill="#23A534"/>
</svg>
