<svg width="77" height="77" viewBox="0 0 77 77" fill="none" xmlns="http://www.w3.org/2000/svg">
<path d="M46.278 69.854C45.643 70.0122 44.9957 70.1527 44.3531 70.2711C42.6734 70.5834 41.563 72.1989 41.8736 73.8801C42.0271 74.7072 42.4968 75.3961 43.1346 75.8458C43.7919 76.3084 44.6284 76.5173 45.4808 76.3587C46.246 76.2167 47.0172 76.0497 47.7739 75.8609C49.4326 75.4481 50.4431 73.7677 50.0293 72.1098C49.6165 70.4505 47.9376 69.4408 46.278 69.854Z" fill="#23A534"/>
<path d="M69.1687 28.3634C69.3856 29.0168 69.7995 29.5503 70.3224 29.9189C71.0977 30.465 72.1122 30.6487 73.0803 30.3286C74.7034 29.7897 75.5828 28.0395 75.0459 26.4172C74.8012 25.6776 74.5298 24.9358 74.2406 24.2135C73.6057 22.6261 71.8051 21.8533 70.217 22.4882C68.6305 23.1228 67.8573 24.9239 68.4927 26.5117C68.7357 27.1188 68.9633 27.742 69.1687 28.3634Z" fill="#23A534"/>
<path d="M56.3364 65.4343C55.7904 65.7948 55.2268 66.1437 54.659 66.4706C53.1778 67.325 52.6705 69.2184 53.5246 70.699C53.7565 71.1017 54.0653 71.4309 54.421 71.6825C55.3759 72.3544 56.6728 72.455 57.7524 71.833C58.4274 71.4437 59.0986 71.0295 59.7489 70.5995C61.1747 69.6575 61.5672 67.737 60.6247 66.3106C59.6824 64.8836 57.7627 64.4917 56.3364 65.4343Z" fill="#23A534"/>
<path d="M76.9705 37.0091C76.9032 35.3006 75.4641 33.9709 73.7551 34.0376C72.0483 34.1049 70.7175 35.5445 70.7845 37.2523C70.8102 37.9053 70.8168 38.568 70.8017 39.2203C70.7777 40.2917 71.3018 41.2468 72.1161 41.8208C72.6013 42.1625 73.19 42.3692 73.8285 42.3838C75.537 42.4217 76.9528 41.0665 76.9907 39.3572C77.0078 38.5778 77.0013 37.7881 76.9705 37.0091Z" fill="#23A534"/>
<path d="M68.6637 57.2912C67.2937 56.2633 65.3554 56.5424 64.3294 57.9099C63.9364 58.4336 63.5226 58.9509 63.0989 59.4489C61.9916 60.7499 62.148 62.704 63.449 63.8122C63.5231 63.8751 63.5981 63.9329 63.6759 63.9871C64.9693 64.899 66.7668 64.6894 67.8126 63.4623C68.3186 62.8681 68.8118 62.2502 69.2814 61.6247C70.3076 60.2571 70.0299 58.3176 68.6637 57.2912Z" fill="#23A534"/>
<path d="M73.2139 46.1016C71.5826 45.5901 69.8455 46.4981 69.3344 48.1293C69.1387 48.7525 68.9219 49.3787 68.6879 49.992C68.1739 51.3419 68.6663 52.8273 69.7952 53.6233C70.0023 53.7688 70.2303 53.8921 70.4781 53.9858C72.0752 54.5952 73.8637 53.7939 74.4725 52.1962C74.7504 51.4671 75.0083 50.7221 75.2415 49.9812C75.7521 48.3497 74.8447 46.613 73.2139 46.1016Z" fill="#23A534"/>
<path d="M32.7728 70.2988C30.0053 69.8019 27.3505 68.9558 24.8331 67.7756C24.8033 67.7601 24.7767 67.7424 24.7454 67.7281C24.1522 67.4489 23.5599 67.1498 22.9859 66.8373C22.9839 66.835 22.9803 66.8335 22.9771 66.8322C21.9239 66.2522 20.896 65.6105 19.8975 64.9075C5.33631 54.6502 1.83522 34.4587 12.0932 19.8977C14.3237 16.7327 17.023 14.0921 20.0324 11.9993C20.0694 11.9735 20.1065 11.9478 20.1433 11.9218C30.7476 4.61509 45.1467 4.12267 56.4069 11.631L53.9885 15.1253C53.3162 16.0979 53.7298 16.8067 54.9068 16.7007L65.4119 15.7602C66.5904 15.6543 67.2952 14.6349 66.9782 13.4967L64.1572 3.33281C63.8414 2.19337 63.0329 2.05698 62.3599 3.02941L59.9358 6.53198C51.6724 0.984902 41.7612 -1.13028 31.9238 0.57557C30.933 0.747049 29.9561 0.956929 28.9926 1.20124C28.9852 1.20256 28.9792 1.20339 28.9733 1.20471C28.936 1.21382 28.8983 1.2259 28.862 1.236C20.3791 3.41441 12.9779 8.36197 7.69663 15.4211C7.6521 15.4739 7.60626 15.5255 7.56421 15.583C7.3886 15.8195 7.2143 16.0615 7.04365 16.3035C6.76458 16.7001 6.48949 17.1066 6.22631 17.5131C6.19337 17.5621 6.16821 17.6119 6.13941 17.6614C1.78127 24.4148 -0.320841 32.2224 0.0396621 40.171C0.0404897 40.1971 0.039 40.2235 0.0396621 40.2503C0.0745869 41.0267 0.13616 41.8139 0.219748 42.5889C0.224217 42.6389 0.235307 42.6862 0.243749 42.7362C0.33015 43.5155 0.438566 44.2966 0.574458 45.0775C1.95556 53.0453 5.71419 60.2152 11.3464 65.794C11.3594 65.8071 11.373 65.8213 11.3862 65.8349C11.3909 65.84 11.396 65.8427 11.4005 65.8475C12.9137 67.34 14.5596 68.7204 16.3318 69.9686C20.9697 73.2366 26.1341 75.3969 31.6803 76.3921C33.3632 76.6945 34.9707 75.5743 35.2726 73.8923C35.5744 72.2091 34.4551 70.6002 32.7728 70.2988Z" fill="black"/>
<rect x="34.0972" y="13.459" width="4.80009" height="28.966" rx="2.40004" fill="black"/>
<rect x="63.0632" y="37.625" width="4.80009" height="28.966" rx="2.40004" transform="rotate(90 63.0632 37.625)" fill="black"/>
</svg>
