<svg width="628" height="226" viewBox="0 0 628 226" fill="none" xmlns="http://www.w3.org/2000/svg">
<path d="M149.916 316.808H112.437C101.632 316.808 92.5158 325.589 92.5158 336.735C92.5158 347.543 101.295 356.662 112.437 356.662H149.578C162.409 357 168.824 346.868 168.824 336.735C168.824 326.603 162.409 316.808 149.916 316.808ZM267.756 276.954H171.863C172.201 276.954 172.539 276.954 172.876 276.954H268.769C268.431 276.954 268.093 276.954 267.756 276.954ZM93.8664 237.437C83.0616 237.437 73.9451 246.219 73.9451 257.364C73.9451 268.172 82.724 277.291 93.8664 277.291C104.671 277.291 113.788 268.51 113.788 257.364C113.788 246.219 104.671 237.437 93.8664 237.437ZM57.0627 158.404H19.9213C9.11652 158.404 0 167.185 0 178.331C0 189.139 8.77887 198.258 19.9213 198.258H57.0627C69.8933 198.596 76.3087 188.464 76.3087 178.331C75.971 168.199 69.8933 158.404 57.0627 158.404ZM118.515 79.0331C107.71 79.0331 98.5935 87.8146 98.5935 98.9603C98.5935 109.768 107.372 118.887 118.515 118.887C129.32 118.887 138.436 110.106 138.436 98.9603C138.098 88.1523 129.32 79.0331 118.515 79.0331ZM189.759 0C178.954 0 169.837 8.78146 169.837 19.9272C169.837 30.7351 178.616 39.5166 189.759 39.5166C200.563 39.5166 209.68 30.7351 209.68 19.9272C209.68 8.78146 200.901 0 189.759 0Z" fill="#23A534" fill-opacity="0.05"/>
<path d="M476.423 0H470.682C497.694 0 523.356 5.40397 545.978 14.8609C525.719 5.40397 502.422 0 476.423 0Z" fill="#23A534" fill-opacity="0.05"/>
<path d="M545.641 14.8609C523.018 5.40397 497.694 0 470.345 0H269.781C259.314 0 250.198 7.43046 249.185 17.9007C248.172 29.7219 257.288 39.5166 268.768 39.5166H276.534C301.52 39.5166 301.52 79.0331 276.534 79.0331H199.213C188.746 79.0331 179.629 86.4636 178.616 96.9338C177.603 108.755 186.72 118.55 198.2 118.55H243.782C269.106 118.55 269.106 158.066 243.782 158.066H136.748C126.281 158.066 117.164 165.497 116.151 175.967C115.138 187.788 124.255 197.583 135.735 197.583H188.408C213.394 197.583 213.732 237.099 188.408 237.099H172.876C162.071 237.099 152.955 245.881 152.955 257.026C152.955 267.497 161.396 276.278 171.863 276.616H267.418C267.755 276.616 268.093 276.616 268.431 276.616C292.404 277.629 292.066 316.132 267.418 316.132H227.575C216.095 316.132 206.979 325.927 207.992 337.748C209.005 348.219 218.121 355.649 228.588 355.649H426.45C432.528 355.649 461.904 356.325 470.345 356.325C573.665 356.325 652 279.656 652 177.656C652 103.351 609.456 42.2185 545.641 14.8609ZM399.776 178.331C399.776 137.126 429.827 107.404 470.682 107.404C511.538 107.404 541.589 137.126 541.589 178.331C541.589 220.212 511.538 249.258 470.682 249.258C429.489 249.258 399.776 220.212 399.776 178.331Z" fill="#23A534" fill-opacity="0.05"/>
</svg>
