<svg width="30" height="30" viewBox="0 0 30 30" fill="none" xmlns="http://www.w3.org/2000/svg">
<path fill-rule="evenodd" clip-rule="evenodd" d="M29.9195 8.81879C29.8389 7.22819 29.5973 6.14094 29.2148 5.1745C28.8322 4.18792 28.3087 3.34228 27.4832 2.51678C26.6577 1.69128 25.8121 1.16779 24.8255 0.785235C23.8792 0.422819 22.7718 0.161074 21.1812 0.0805368C19.5906 -7.80061e-08 19.0671 0 15 0C10.9329 0 10.4094 0.0201341 8.8188 0.0805368C7.2282 0.161074 6.14093 0.402685 5.17449 0.785235C4.18791 1.16779 3.34228 1.67114 2.51678 2.51678C1.69128 3.34228 1.16779 4.18792 0.78524 5.1745C0.422824 6.12081 0.161079 7.22819 0.0805418 8.81879C4.91438e-06 10.4094 0 10.9329 0 15C0 19.0671 0.0201391 19.5906 0.0805418 21.1812C0.161079 22.7718 0.402689 23.8591 0.78524 24.8255C1.16779 25.8121 1.69128 26.6577 2.51678 27.4832C3.34228 28.3087 4.18791 28.8322 5.17449 29.2148C6.1208 29.5772 7.2282 29.8389 8.8188 29.9195C10.4094 30 10.9329 30 15 30C19.0671 30 19.5906 29.9799 21.1812 29.9195C22.7718 29.8389 23.8591 29.5973 24.8255 29.2148C25.8121 28.8322 26.6577 28.3289 27.4832 27.4832C28.3087 26.6577 28.8322 25.8121 29.2148 24.8255C29.5772 23.8792 29.8389 22.7718 29.9195 21.1812C30 19.5906 30 19.0671 30 15C30 10.9329 29.9799 10.4295 29.9195 8.81879ZM27.2215 21.0604C27.1611 22.5302 26.9195 23.3154 26.698 23.8389C26.4161 24.5436 26.094 25.047 25.5705 25.5705C25.047 26.094 24.5436 26.4161 23.8389 26.698C23.3154 26.8993 22.5101 27.1409 21.0604 27.2215C19.4698 27.302 19.0067 27.302 15 27.302C10.9933 27.302 10.5302 27.2819 8.9396 27.2215C7.4698 27.1611 6.68456 26.9195 6.16107 26.698C5.45637 26.4161 4.95302 26.094 4.42953 25.5705C3.90604 25.047 3.5839 24.5436 3.30202 23.8389C3.10068 23.3154 2.85907 22.5101 2.77853 21.0604C2.698 19.4698 2.69799 19.0067 2.69799 15C2.69799 10.9933 2.71813 10.5302 2.77853 8.9396C2.83894 7.4698 3.08054 6.68456 3.30202 6.16107C3.5839 5.45638 3.90604 4.95302 4.42953 4.42953C4.95302 3.90604 5.45637 3.58389 6.16107 3.30201C6.68456 3.10067 7.48994 2.85906 8.9396 2.77852C10.5302 2.69799 10.9933 2.69799 15 2.69799C19.0067 2.69799 19.4698 2.71812 21.0604 2.77852C22.5302 2.83893 23.3154 3.08054 23.8389 3.30201C24.5436 3.58389 25.047 3.90604 25.5705 4.42953C26.094 4.95302 26.4161 5.45638 26.698 6.16107C26.8993 6.68456 27.1409 7.48993 27.2215 8.9396C27.302 10.5302 27.302 10.9933 27.302 15C27.302 19.0067 27.2819 19.4899 27.2215 21.0604ZM15 7.30872C10.7517 7.30872 7.30873 10.7517 7.30873 15C7.30873 19.2483 10.7517 22.6913 15 22.6913C19.2483 22.6913 22.6913 19.2483 22.6913 15C22.7114 10.7517 19.2483 7.30872 15 7.30872ZM15 20.0134C12.2416 20.0134 10.0067 17.7785 10.0067 15.0201C10.0067 12.2617 12.2416 10.0268 15 10.0268C17.7584 10.0268 19.9933 12.2617 19.9933 15.0201C20.0134 17.7584 17.7584 20.0134 15 20.0134ZM23.0134 5.19463C22.0269 5.19463 21.2215 6 21.2215 6.98658C21.2215 7.97315 22.0269 8.77852 23.0134 8.77852C24 8.77852 24.8054 7.97315 24.8054 6.98658C24.8054 6 24 5.19463 23.0134 5.19463Z" fill="#23A534"/>
</svg>
