<svg width="108" height="76" viewBox="0 0 108 76" fill="none" xmlns="http://www.w3.org/2000/svg">
<path d="M93.5195 50.625C89.804 50.625 86.4647 52.2589 84.1764 54.8438H78.4335C82.7635 47.0842 92.4629 43.8024 100.649 47.6958C101.964 48.3212 103.537 47.7622 104.162 46.447C104.788 45.132 104.229 43.5588 102.913 42.9335C91.3952 37.4553 77.4443 42.7547 72.6061 54.8438H50.9399L35.9375 37.8417L42.0914 5.27344H51.1562C52.6124 5.27344 53.793 4.09289 53.793 2.63672C53.793 1.18055 52.6124 0 51.1562 0H39.9062C38.6389 0 37.5508 0.901758 37.3154 2.14717L28.1537 50.6334C21.4229 50.8076 16 56.3333 16 63.1055C16 69.9871 21.5988 75.5859 28.4805 75.5859C35.3621 75.5859 40.9609 69.9871 40.9609 63.1055C40.9609 57.9452 37.8129 53.5062 33.3363 51.6085L34.6971 44.4064L47.2219 58.6005C47.4385 65.6773 53.2326 71.3672 60.3971 71.3672H84.1764C86.4647 73.952 89.804 75.5859 93.5195 75.5859C100.401 75.5859 106 69.9871 106 63.1055C106 56.2238 100.401 50.625 93.5195 50.625ZM35.6875 63.1055C35.6875 67.0794 32.4544 70.3125 28.4805 70.3125C24.5066 70.3125 21.2734 67.0794 21.2734 63.1055C21.2734 59.5916 23.8019 56.6587 27.1347 56.0264L25.8896 62.6159C25.5838 64.2345 26.8236 65.7427 28.4835 65.7427C29.7259 65.7427 30.8322 64.8605 31.0715 63.595L32.316 57.0081C34.3396 58.2859 35.6875 60.5405 35.6875 63.1055ZM60.3971 66.0938C56.6016 66.0938 53.5581 63.457 52.7226 60.1172H81.4033C80.9181 62.0838 80.9171 64.1231 81.4033 66.0938H60.3971ZM93.5195 70.3125C89.5456 70.3125 86.3125 67.0794 86.3125 63.1055C86.3125 59.1316 89.5456 55.8984 93.5195 55.8984C97.4934 55.8984 100.727 59.1316 100.727 63.1055C100.727 67.0794 97.4934 70.3125 93.5195 70.3125Z" fill="white"/>
<path d="M77.4639 3.52767L79.2347 8.50687C79.3105 8.72009 79.4605 8.88891 79.65 8.97437L84.0737 10.9676C84.6987 11.2491 84.6987 12.245 84.0737 12.5265L79.65 14.5195C79.4607 14.605 79.3105 14.7738 79.2347 14.987L77.4639 19.9662C77.2138 20.6698 76.3291 20.6698 76.0788 19.9662L74.308 14.987C74.2322 14.7738 74.082 14.605 73.8927 14.5195L69.4688 12.5265C68.8437 12.245 68.8437 11.2491 69.4688 10.9676L73.8927 8.97437C74.082 8.88912 74.2322 8.72009 74.308 8.50687L76.0788 3.52767C76.3291 2.82411 77.2138 2.82411 77.4639 3.52767Z" fill="white"/>
<path d="M55.3662 35.0845C56.9866 34.4128 57.7558 32.5546 57.0842 30.9341C56.4125 29.3137 54.5545 28.5446 52.934 29.2163C51.3136 29.888 50.5445 31.7462 51.2161 33.3667C51.8877 34.9871 53.7458 35.7562 55.3662 35.0845Z" fill="white"/>
<path d="M105.99 33.6549C106.85 33.2983 107.258 32.3117 106.902 31.4513C106.545 30.591 105.559 30.1827 104.699 30.5394C103.838 30.896 103.43 31.8826 103.786 32.743C104.143 33.6033 105.129 34.0116 105.99 33.6549Z" fill="white"/>
<path d="M8.46392 25.5277L10.2347 30.5069C10.3105 30.7201 10.4605 30.8889 10.65 30.9744L15.0737 32.9676C15.6987 33.2491 15.6987 34.245 15.0737 34.5265L10.65 36.5195C10.4607 36.605 10.3105 36.7738 10.2347 36.987L8.46392 41.9662C8.21383 42.6698 7.32908 42.6698 7.07878 41.9662L5.30804 36.987C5.23222 36.7738 5.08204 36.605 4.89269 36.5195L0.468763 34.5265C-0.156254 34.245 -0.156254 33.2491 0.468763 32.9676L4.89269 30.9744C5.08204 30.8891 5.23222 30.7201 5.30804 30.5069L7.07878 25.5277C7.32908 24.8241 8.21383 24.8241 8.46392 25.5277Z" fill="white"/>
</svg>
