<svg width="100" height="100" viewBox="0 0 100 100" fill="none" xmlns="http://www.w3.org/2000/svg">
<path d="M77.0828 39.5817H18.7481C15.3021 39.5817 12.4979 42.3859 12.4979 45.8319V49.9986C12.4979 64.8655 20.7106 78.3493 33.9275 85.1869C34.9485 85.7119 36.2067 85.316 36.736 84.291C37.261 83.2701 36.8651 82.0118 35.8401 81.4825C24.0148 75.3658 16.6646 63.303 16.6646 49.9984V45.8317C16.6646 44.6817 17.598 43.7482 18.7481 43.7482H77.0828C78.2329 43.7482 79.1663 44.6817 79.1663 45.8317V49.9984C79.1663 63.3028 71.8161 75.3656 59.9867 81.4782C58.9617 82.0073 58.5658 83.2658 59.0908 84.2867C59.4617 85.0033 60.1908 85.4158 60.945 85.4158C61.27 85.4158 61.595 85.3408 61.8991 85.1824C75.1203 78.3489 83.333 64.8694 83.333 49.9982V45.8315C83.333 42.3859 80.5286 39.5817 77.0828 39.5817Z" fill="white"/>
<path d="M95.6791 82.5328C95.354 81.7537 94.5956 81.2452 93.754 81.2452H2.08525C1.24363 81.2452 0.485214 81.7537 0.160206 82.5328C-0.164801 83.3119 0.0143045 84.2078 0.610217 84.8037L5.28122 89.4788C8.03969 92.233 11.698 93.7498 15.594 93.7498H80.2371C84.1331 93.7498 87.7957 92.2332 90.5582 89.4788L95.2292 84.8037C95.825 84.2078 96.0041 83.3119 95.6791 82.5328ZM87.6082 86.5329C85.6415 88.4995 83.0206 89.5829 80.2414 89.5829H15.594C12.8148 89.5829 10.1938 88.4995 8.22719 86.5329L7.11056 85.4162H88.7248L87.6082 86.5329Z" fill="white"/>
<path d="M95.9708 49.4195C90.3582 45.811 81.3914 49.7279 80.387 50.182C79.3411 50.6611 78.8745 51.8946 79.3536 52.9446C79.8327 53.9946 81.062 54.4571 82.1162 53.978C84.1246 53.0655 90.5664 50.9029 93.7164 52.9321C95.1374 53.8446 95.8331 55.6155 95.8331 58.3322C95.8331 66.674 79.0077 71.7159 72.5117 72.9575L71.0366 73.2491C69.9075 73.47 69.1741 74.5658 69.395 75.6951C69.5909 76.6867 70.4616 77.3742 71.4366 77.3742C71.57 77.3742 71.7032 77.3617 71.8407 77.3326L73.3033 77.0451C74.3949 76.8367 99.9998 71.8159 99.9998 58.3322C100 54.1405 98.6418 51.1445 95.9708 49.4195Z" fill="white"/>
<path d="M64.1366 22.1315C67.5242 17.898 67.5242 11.2687 64.1366 7.03523C63.4157 6.13521 62.1116 5.9852 61.2075 6.71022C60.3074 7.43114 60.1615 8.73937 60.8825 9.63939C63.0284 12.3186 63.0284 16.848 60.8784 19.5355C57.4867 23.769 57.4867 30.3983 60.8784 34.6318C61.2909 35.1484 61.895 35.4152 62.5075 35.4152C62.9616 35.4152 63.4241 35.2652 63.8075 34.9568C64.7076 34.2359 64.8535 32.9233 64.1325 32.0276C61.9825 29.3483 61.9825 24.819 64.1366 22.1315Z" fill="white"/>
<path d="M51.6198 22.1313C55.0115 17.8978 55.0115 11.2685 51.6198 7.03503C50.9031 6.13501 49.5906 5.98911 48.6906 6.71002C47.7906 7.43094 47.6447 8.74347 48.3656 9.63919C50.5156 12.3184 50.5156 16.8478 48.3615 19.5353C44.9739 23.7688 44.9739 30.3981 48.3615 34.6316C48.774 35.1482 49.3781 35.415 49.9906 35.415C50.4447 35.415 50.9032 35.265 51.2907 34.9566C52.1907 34.2357 52.3366 32.9274 51.6157 32.0274C49.4697 29.3481 49.4697 24.8188 51.6198 22.1313Z" fill="white"/>
<path d="M39.136 22.1356C42.5236 17.9021 42.5236 11.2728 39.136 7.03932C38.4194 6.1393 37.111 5.98929 36.2069 6.71431C35.3109 7.43093 35.1652 8.74346 35.8818 9.63938C38.0278 12.3185 38.0278 16.8479 35.8777 19.5355C32.4861 23.769 32.4861 30.3983 35.8777 34.6318C36.2903 35.1484 36.8944 35.4152 37.5069 35.4152C37.961 35.4152 38.4235 35.2652 38.8069 34.9611C39.7069 34.2401 39.8528 32.9276 39.1319 32.0319C36.9819 29.3482 36.9819 24.8231 39.136 22.1356Z" fill="white"/>
</svg>
