<svg width="100" height="108" viewBox="0 0 100 108" fill="none" xmlns="http://www.w3.org/2000/svg">
<path d="M93.7138 63.9906C92.5744 62.7379 90.9494 62.0192 89.2562 62.0192H87.869C88.3099 58.421 87.3237 54.8663 85.0912 52.0099C83.6227 50.1307 82.0511 49.1257 80.2871 48.9376C79.4094 48.8436 78.5779 48.9577 77.7681 49.2244C76.8543 45.0598 74.0051 41.3842 69.7854 39.607C67.5869 38.681 65.7248 38.5696 64.0932 39.2643C61.3543 40.4308 60.2155 43.394 58.897 46.8249C58.6331 47.511 58.3574 48.2184 58.0657 48.9293C57.2967 48.8606 56.5628 48.9496 55.8479 49.1613C55.6324 48.2182 55.3153 47.2911 54.8947 46.3942C53.3548 43.1118 50.6287 40.6256 47.2188 39.3931C44.9755 38.5827 43.1105 38.5672 41.5167 39.3462C38.842 40.6532 37.8584 43.6711 36.7193 47.1656C36.4843 47.8866 36.2384 48.6299 35.9747 49.3781C35.4425 49.1454 34.8935 48.9982 34.3244 48.9376C33.2721 48.8249 32.2862 49.0101 31.3258 49.3999C31.2096 49.2294 31.0927 49.0595 30.9679 48.8934C28.79 45.9948 25.6136 44.1176 22.0239 43.608C19.6623 43.2723 17.8335 43.6386 16.4323 44.7263C14.0807 46.5521 13.7342 49.7076 13.3331 53.3611C13.2378 54.23 13.139 55.1283 13.0099 56.0378C12.8807 56.9477 12.7253 57.8378 12.5751 58.6987C12.3613 59.924 12.16 61.0909 12.0517 62.1943C10.8967 62.4775 9.83689 63.0973 9.02441 63.9906C7.87974 65.2488 7.31567 66.9437 7.47674 68.6406C8.23832 76.6703 11.1979 84.3336 16.0347 90.8029C20.7862 97.1576 27.1556 102.121 34.4547 105.155C37.7857 106.54 41.3598 107.242 45.0781 107.242H57.6601C61.3784 107.242 64.9526 106.54 68.2836 105.155C75.5827 102.121 81.9522 97.1576 86.7038 90.8029C91.5407 84.3336 94.4999 76.6701 95.2615 68.6406C95.4226 66.9437 94.8585 65.2488 93.7138 63.9906ZM79.83 53.2248C80.4961 53.2958 81.2114 54.0469 81.694 54.6646C83.3837 56.8268 83.9561 59.5106 83.5024 62.0192H67.5232C68.2967 61.3221 69.3143 60.5763 70.3637 59.8084C71.0961 59.2726 71.8535 58.7184 72.6314 58.1104C73.4096 57.5023 74.1303 56.9014 74.8274 56.3201C76.7385 54.7266 78.5475 53.2181 79.7008 53.2181C79.7448 53.2181 79.7879 53.2202 79.83 53.2248ZM52.7078 56.3201C54.6188 54.7266 56.4279 53.2181 57.581 53.2181C57.625 53.2181 57.6683 53.2202 57.7104 53.2248C58.3763 53.2958 59.0916 54.0469 59.5744 54.6646C61.264 56.8268 61.8363 59.5104 61.3826 62.0192H45.4034C46.1769 61.3221 47.1942 60.5763 48.2436 59.8086C48.9763 59.2726 49.7337 58.7186 50.5116 58.1104C51.2897 57.5023 52.0105 56.9014 52.7078 56.3201ZM62.9213 48.3715C63.8481 45.9598 64.7236 43.682 65.7826 43.2308C65.9464 43.161 66.1366 43.1317 66.3409 43.1317C66.9062 43.1317 67.5815 43.3571 68.1118 43.5804C71.4811 44.9996 73.5732 48.1918 73.7633 51.618C73.2085 52.0566 72.6455 52.5258 72.0661 53.009C71.3948 53.5689 70.7007 54.1474 69.9768 54.7134C69.2525 55.2793 68.5234 55.8128 67.8179 56.3291C67.0513 56.8899 66.3134 57.4313 65.6312 57.9765C65.2575 55.8656 64.381 53.814 62.9715 52.0101C62.6333 51.5772 62.2891 51.1929 61.9389 50.8521C62.2958 49.9969 62.6142 49.1708 62.9213 48.3715ZM39.9108 51.1855C40.2462 50.257 40.5371 49.3645 40.8184 48.5015C41.6189 46.0453 42.3753 43.7251 43.4094 43.2197C43.6 43.1267 43.8306 43.0888 44.0807 43.0888C44.6204 43.0888 45.2494 43.266 45.7534 43.4482C49.2871 44.7251 51.5679 47.9421 51.8371 51.466C51.2198 51.9475 50.5933 52.4695 49.9465 53.009C49.2752 53.5689 48.5811 54.1474 47.857 54.7136C47.1329 55.2795 46.4033 55.8132 45.6979 56.3293C44.305 57.3486 43.0047 58.3035 41.9715 59.334C41.7873 56.8563 40.9221 54.4819 39.4427 52.4335C39.5996 52.0271 39.7565 51.6128 39.9108 51.1855ZM33.8672 53.2248C34.533 53.2958 35.2483 54.0469 35.7311 54.6646C37.2547 56.6142 37.9277 59.0403 37.6267 61.496C37.6051 61.6722 37.5769 61.8462 37.5454 62.0194H21.5602C22.3337 61.3224 23.3512 60.5765 24.4004 59.8086C25.1329 59.2728 25.8902 58.7186 26.6682 58.1106C27.4463 57.5025 28.167 56.9016 28.8643 56.3203C30.7754 54.7268 32.5845 53.2183 33.7375 53.2183C33.7817 53.2181 33.8251 53.2202 33.8672 53.2248ZM17.2785 56.6439C17.4173 55.6664 17.5197 54.7335 17.6188 53.8314C17.9007 51.2632 18.167 48.8375 19.0762 48.1316C19.3988 47.8811 19.9101 47.8003 20.436 47.8003C20.7724 47.8003 21.1146 47.8334 21.4177 47.8763C23.8671 48.224 26.0346 49.5051 27.5209 51.4832C27.577 51.5579 27.6279 51.6356 27.6815 51.7119C27.1652 52.1233 26.6414 52.5602 26.1033 53.0088C25.432 53.5687 24.7378 54.1472 24.0137 54.7134C23.2896 55.2793 22.5601 55.813 21.8549 56.3289C19.5328 58.0276 17.4636 59.5472 16.4762 61.5408C16.5734 60.8722 16.6966 60.1626 16.8227 59.44C16.9785 58.5458 17.1398 57.6215 17.2785 56.6439ZM90.9695 68.2334C89.5794 82.888 80.2525 95.51 66.6284 101.174C63.8246 102.34 60.8072 102.931 57.6601 102.931H45.0781C41.931 102.931 38.9134 102.34 36.1098 101.174C22.486 95.51 13.1591 82.888 11.7687 68.2334C11.7216 67.7355 11.8797 67.2592 12.2138 66.8916C12.5429 66.5299 12.9934 66.3309 13.4823 66.3309H89.2562C89.7451 66.3309 90.1956 66.5301 90.5242 66.8916C90.8585 67.259 91.0167 67.7355 90.9695 68.2334Z" fill="white"/>
<path d="M29.3073 75.7103C28.1168 75.7101 27.1516 74.7449 27.1518 73.5544C27.152 72.3638 28.117 71.3989 29.3075 71.3989H29.3077L36.0558 71.3984H36.0562C37.2467 71.3984 38.2117 72.3632 38.2119 73.5537C38.2121 74.7443 37.2472 75.7097 36.0566 75.7099L29.3073 75.7103Z" fill="white"/>
<path d="M21.9659 75.7099H20.5301C19.3395 75.7099 18.3743 74.7447 18.3743 73.5542C18.3743 72.3636 19.3395 71.3984 20.5301 71.3984H21.9659C23.1564 71.3984 24.1216 72.3636 24.1216 73.5542C24.1216 74.7447 23.1564 75.7099 21.9659 75.7099Z" fill="white"/>
<path d="M52.0616 0.527673L53.8323 5.50687C53.9082 5.72009 54.0583 5.88891 54.2477 5.97437L58.6714 7.96735C59.2964 8.24886 59.2964 9.24482 58.6714 9.52633L54.2477 11.5193C54.0583 11.6048 53.9082 11.7736 53.8323 11.9868L52.0616 16.966C51.8115 17.6696 50.9268 17.6696 50.6765 16.966L48.9057 11.9868C48.8299 11.7736 48.6797 11.6048 48.4904 11.5193L44.0667 9.52633C43.4416 9.24482 43.4416 8.24907 44.0667 7.96735L48.4904 5.97437C48.6797 5.88912 48.8299 5.72009 48.9057 5.50687L50.6765 0.527673C50.9268 -0.175891 51.8115 -0.175891 52.0616 0.527673Z" fill="white"/>
<path d="M8.46392 21.0423L10.2347 26.0215C10.3105 26.2347 10.4605 26.4036 10.65 26.489L15.0737 28.4822C15.6987 28.7637 15.6987 29.7597 15.0737 30.0412L10.65 32.0342C10.4607 32.1196 10.3105 32.2884 10.2347 32.5017L8.46392 37.4809C8.21383 38.1844 7.32908 38.1844 7.07878 37.4809L5.30804 32.5017C5.23222 32.2884 5.08204 32.1196 4.89269 32.0342L0.468763 30.0412C-0.156254 29.7597 -0.156254 28.7637 0.468763 28.4822L4.89269 26.489C5.08204 26.4038 5.23222 26.2347 5.30804 26.0215L7.07878 21.0423C7.32908 20.3388 8.21383 20.3388 8.46392 21.0423Z" fill="white"/>
<path d="M94.7491 29.6532L96.0626 33.3467C96.1188 33.5049 96.2302 33.6301 96.3708 33.6936L99.6523 35.1722C100.116 35.381 100.116 36.1197 99.6523 36.3286L96.3708 37.8069C96.2302 37.8702 96.119 37.9954 96.0626 38.1538L94.7491 41.8473C94.5636 42.3691 93.9073 42.3691 93.7218 41.8473L92.4083 38.1538C92.3521 37.9956 92.2407 37.8704 92.1002 37.8069L88.8186 36.3286C88.3551 36.1197 88.3551 35.381 88.8186 35.1722L92.1002 33.6936C92.2407 33.6303 92.3519 33.5051 92.4083 33.3467L93.7218 29.6532C93.9073 29.1312 94.5636 29.1312 94.7491 29.6532Z" fill="white"/>
<path d="M77.0359 28.0581C79.009 27.2402 79.9455 24.9776 79.1277 23.0044C78.3098 21.0312 76.0473 20.0947 74.0742 20.9126C72.101 21.7305 71.1645 23.9931 71.9823 25.9663C72.8002 27.9394 75.0627 28.876 77.0359 28.0581Z" fill="white"/>
<path d="M32.6817 23.2723C33.6028 23.2723 34.3496 22.5256 34.3496 21.6044C34.3496 20.6833 33.6028 19.9365 32.6817 19.9365C31.7605 19.9365 31.0138 20.6833 31.0138 21.6044C31.0138 22.5256 31.7605 23.2723 32.6817 23.2723Z" fill="white"/>
</svg>
