<svg width="28" height="18" viewBox="0 0 28 18" fill="none" xmlns="http://www.w3.org/2000/svg">
<path d="M0.826172 0.0970026C1.03395 0.0673881 1.23678 0.0081591 1.44455 0.0081591C4.11596 0.00322335 6.78737 0.00322335 9.45878 0.00322335C14.4405 0.00322335 19.4172 0.00322335 24.3989 0.00322335C24.8095 0.00322335 25.225 -0.00664815 25.6357 0.0081591C25.8187 0.0130948 25.9968 0.0673881 26.1798 0.101938C26.1848 0.126617 26.1897 0.151296 26.1897 0.175975C21.9649 3.81856 17.7402 7.45621 13.5055 11.1087C9.27079 7.46114 5.04601 3.82349 0.826172 0.185846C0.826172 0.156232 0.826172 0.126617 0.826172 0.0970026Z" fill="#23A334"/>
<path d="M0.816162 17.831C3.99217 15.0916 7.17313 12.3523 10.3689 9.59814C10.7647 9.93871 11.1555 10.2645 11.5414 10.5952C12.0658 11.0443 12.5902 11.4984 13.1096 11.9525C13.4064 12.2092 13.6092 12.2092 13.911 11.9426C14.757 11.2121 15.6079 10.4816 16.4489 9.74128C16.5923 9.61295 16.6764 9.62282 16.8149 9.74622C19.7485 12.2783 22.692 14.8103 25.6306 17.3374C25.8186 17.4953 25.9967 17.6632 26.1847 17.9001C25.9719 17.9346 25.7642 17.9939 25.5514 17.9939C23.7606 18.0037 21.9747 17.9988 20.1839 17.9988C13.9506 17.9988 7.72225 17.9988 1.48896 17.9939C1.26634 17.9939 1.04373 17.9346 0.826056 17.905C0.816162 17.8853 0.816162 17.8557 0.816162 17.831Z" fill="#23A334"/>
<path d="M0.183041 0.81781C3.34421 3.53741 6.50043 6.26194 9.68633 9.00622C6.50043 11.7505 3.33926 14.4701 0.113782 17.2539C0.0692588 16.9972 0.00989411 16.7948 0.00989411 16.5974C0 14.4997 0 12.402 0 10.3043C0 7.36755 0 4.43572 0.00494705 1.49894C0.00494705 1.27683 0.0593647 1.05473 0.089047 0.832617C0.118729 0.827682 0.148412 0.822746 0.183041 0.81781Z" fill="#23A334"/>
<path d="M26.9171 0.822746C26.9467 1.04485 26.9962 1.26696 26.9962 1.48907C27.0012 5.01813 27.0012 8.54226 27.0012 12.0713C27.0012 13.5669 27.0061 15.0624 26.9962 16.5579C26.9962 16.7652 26.9418 16.9676 26.9121 17.1749C26.8874 17.1848 26.8577 17.1897 26.833 17.1996C23.6718 14.475 20.5106 11.7505 17.3247 9.00622C20.5106 6.26194 23.6668 3.53741 26.8231 0.81781C26.8528 0.81781 26.8874 0.81781 26.9171 0.822746Z" fill="#23A334"/>
</svg>
