<svg width="24" height="26" viewBox="0 0 24 26" fill="none" xmlns="http://www.w3.org/2000/svg">
<path d="M0 10.0155C0.117647 9.51072 0.306905 9.04669 0.710997 8.69485C1.07928 8.37869 1.50384 8.17982 1.98465 8.17982C3.88747 8.16453 5.78517 8.16453 7.68798 8.17472C8.27621 8.17982 8.73146 8.67445 8.72634 9.25066C8.72634 9.84727 8.25575 10.3266 7.63171 10.3317C5.92839 10.3368 4.21995 10.3368 2.51662 10.3368C2.41432 10.3368 2.31714 10.3368 2.19949 10.3368C2.19949 14.6915 2.19949 19.0208 2.19949 23.3705C8.73146 23.3705 15.2583 23.3705 21.8056 23.3705C21.8056 19.0361 21.8056 14.7068 21.8056 10.3368C21.6982 10.3368 21.601 10.3368 21.5038 10.3368C19.8056 10.3368 18.1125 10.3419 16.4143 10.3368C15.7136 10.3368 15.243 9.84727 15.2788 9.17927C15.3043 8.65405 15.7289 8.21552 16.2609 8.17982C16.532 8.16453 16.8082 8.16962 17.0793 8.16962C18.6496 8.16962 20.2148 8.16453 21.7852 8.16962C22.9361 8.17472 23.7442 8.82743 23.9591 9.89827C24 10.0971 24 10.3062 24 10.5051C24 14.7374 24 18.9698 24 23.1971C24 24.5178 23.4629 25.2062 22.1893 25.5376C22.1739 25.5427 22.1586 25.5529 22.1432 25.5631C15.376 25.5631 8.60358 25.5631 1.83632 25.5631C1.77494 25.5427 1.70844 25.5223 1.64706 25.507C0.808184 25.2929 0.276215 24.7676 0.056266 23.9263C0.0409207 23.86 0.0153453 23.7988 0 23.7376C0 19.1636 0 14.5896 0 10.0155Z" fill="white"/>
<path d="M10.9102 3.19787C10.7926 3.30496 10.7261 3.36615 10.6596 3.43244C9.92814 4.15653 9.20179 4.88572 8.47034 5.61491C7.9844 6.09934 7.32456 6.11973 6.87443 5.6812C6.41919 5.23247 6.43965 4.56447 6.93069 4.06984C8.0509 2.94801 9.1711 1.83128 10.2964 0.714542C11.2529 -0.233916 12.5266 -0.239015 13.478 0.704344C14.6187 1.82618 15.7491 2.95821 16.8795 4.09024C17.2478 4.46248 17.3399 4.91631 17.1404 5.34975C16.9563 5.75769 16.5419 6.01265 16.0918 5.98715C15.7798 5.97186 15.5292 5.82398 15.3092 5.60471C14.6545 4.94691 13.9946 4.29421 13.3399 3.63641C13.2734 3.57012 13.2325 3.48343 13.1762 3.40694C13.1455 3.42224 13.12 3.43754 13.0893 3.45283C13.0893 3.54972 13.0893 3.6466 13.0893 3.74349C13.0893 7.73109 13.0893 11.7136 13.0893 15.7012C13.0893 16.3794 12.634 16.8587 11.9997 16.8587C11.4115 16.8587 10.9614 16.4304 10.9102 15.8287C10.9 15.7267 10.9051 15.6247 10.9051 15.5227C10.9051 11.5351 10.9051 7.55262 10.9051 3.56502C10.9102 3.46813 10.9102 3.36615 10.9102 3.19787Z" fill="white"/>
</svg>
