<svg width="26" height="24" viewBox="0 0 26 24" fill="none" xmlns="http://www.w3.org/2000/svg">
<path d="M12.8291 24C10.3726 23.962 7.93603 23.7405 5.54579 23.1899C4.27453 22.8988 3.04299 22.5191 1.89753 21.8989C1.3877 21.6268 0.917599 21.3103 0.540193 20.88C0.421012 20.7471 0.315074 20.5952 0.222378 20.4433C-0.0226053 20.0509 -0.0557111 19.6269 0.0767121 19.1966C0.301831 18.4561 0.533572 17.7157 0.778555 16.9879C0.904357 16.6145 1.18245 16.3361 1.49364 16.0892C2.28156 15.469 3.17541 15.0134 4.08251 14.5767C5.28756 14.0008 6.53896 13.5451 7.79698 13.0895C7.90292 13.0515 7.95589 13.0958 8.0221 13.1528C8.41275 13.4692 8.79016 13.7983 9.19405 14.0894C10.6441 15.1146 12.2795 15.3994 14.0143 15.083C15.2259 14.8615 16.2456 14.2476 17.1461 13.4439C17.2321 13.3616 17.3315 13.292 17.4109 13.2034C17.5168 13.0768 17.6228 13.0705 17.7817 13.1211C19.6489 13.7603 21.4432 14.5387 23.1515 15.4943C23.3236 15.5893 23.4825 15.6969 23.648 15.8044C24.2837 16.2158 24.7207 16.7664 24.9259 17.4752C25.1179 18.1144 25.3033 18.7536 25.4689 19.3991C25.588 19.8611 25.4291 20.2851 25.1444 20.6585C24.767 21.1648 24.2506 21.5255 23.701 21.8356C22.582 22.4621 21.3704 22.8545 20.119 23.1646C18.7219 23.5127 17.305 23.7342 15.8682 23.8355C14.8551 23.9051 13.8421 23.9494 12.8291 24Z" fill="#23A534"/>
<path d="M18.9473 6.42543C18.8215 8.82397 17.8548 11.039 15.7625 12.7351C15.2063 13.1844 14.5905 13.5704 13.8556 13.716C12.4056 14.0008 11.0813 13.7603 9.89614 12.8616C8.4461 11.7478 7.51252 10.3175 6.95634 8.64677C6.61204 7.61521 6.47962 6.55833 6.59218 5.47614C6.85702 2.89407 8.88972 0.698039 11.5382 0.134793C13.2796 -0.232266 14.862 0.166436 16.2723 1.13471C18.0799 2.37512 18.9208 4.12182 18.9473 6.42543Z" fill="#23A534"/>
</svg>
