<svg width="10" height="15" viewBox="0 0 10 15" fill="none" xmlns="http://www.w3.org/2000/svg">
<path d="M4.99625 3.65318C6.38222 3.65318 7.76818 3.65318 9.15415 3.65318C9.51604 3.65318 9.61614 3.76308 9.58534 4.14164C9.34664 7.27185 9.10795 10.4021 8.86926 13.5323C8.85771 13.687 8.85001 13.8457 8.83076 13.9963C8.80381 14.2039 8.69601 14.3057 8.49582 14.3179C8.41882 14.322 8.34182 14.3179 8.26482 14.3179C6.05883 14.3179 3.85283 14.3179 1.64299 14.3179C1.26185 14.3179 1.181 14.2406 1.1502 13.8416C0.903808 10.6382 0.661264 7.43467 0.41487 4.23119C0.41102 4.15792 0.40332 4.08058 0.40332 4.00731C0.40717 3.79565 0.518817 3.66132 0.722862 3.65725C0.946157 3.64911 1.1733 3.65318 1.3966 3.65318C2.59776 3.65318 3.79893 3.65318 4.99625 3.65318ZM7.77203 5.56631C7.77588 5.32208 7.67964 5.17962 7.48329 5.16333C7.28695 5.14705 7.1599 5.2651 7.1291 5.50119C7.1214 5.5541 7.1214 5.61109 7.11755 5.66401C7.05595 6.46182 6.99435 7.25964 6.92891 8.05339C6.80571 9.50656 6.67866 10.9557 6.55546 12.4088C6.53621 12.6327 6.64401 12.7752 6.83266 12.7996C7.029 12.824 7.17145 12.6978 7.19455 12.474C7.22535 12.1442 7.24845 11.8105 7.2754 11.4808C7.36394 10.3654 7.44864 9.25419 7.54104 8.13887C7.61034 7.28 7.69503 6.42519 7.77203 5.56631ZM3.42549 12.2257C3.3639 11.4563 3.3023 10.687 3.233 9.91768C3.15215 8.97332 3.06745 8.02897 2.9866 7.08461C2.94041 6.55952 2.90961 6.03035 2.86726 5.50526C2.84801 5.26917 2.70941 5.14705 2.51692 5.16333C2.32057 5.17962 2.21277 5.32208 2.23587 5.56224C2.27052 5.96522 2.31672 6.37227 2.34752 6.77525C2.42452 7.73996 2.49767 8.70467 2.57467 9.67345C2.64781 10.5975 2.72866 11.5255 2.80566 12.4495C2.82491 12.6897 2.96351 12.824 3.16755 12.7996C3.3639 12.7752 3.46014 12.6286 3.44089 12.3925C3.43704 12.3356 3.43319 12.2826 3.42549 12.2257ZM4.69596 10.3899C4.69211 10.3899 4.68826 10.3899 4.68441 10.3899C4.68441 11.0737 4.68056 11.7575 4.68441 12.4455C4.68441 12.7345 4.93851 12.8932 5.16565 12.7589C5.31195 12.6734 5.3235 12.5269 5.31965 12.3722C5.31195 10.6829 5.3081 8.99775 5.30425 7.30849C5.30425 6.72641 5.31965 6.14433 5.31195 5.56224C5.31195 5.45234 5.26575 5.30173 5.1926 5.24882C5.11175 5.18776 4.94621 5.17148 4.86151 5.21625C4.77681 5.26103 4.69596 5.41164 4.69211 5.51747C4.68056 6.10769 4.69596 6.69791 4.69596 7.28407C4.69596 8.31797 4.69596 9.35595 4.69596 10.3899Z" fill="#23A334"/>
<path d="M3.41771 1.78473C3.41771 1.5812 3.41386 1.41431 3.41771 1.24743C3.42541 0.811884 3.70645 0.502528 4.12223 0.494387C4.70741 0.486246 5.28874 0.486246 5.87392 0.494387C6.2974 0.502528 6.57459 0.807814 6.58229 1.25964C6.58614 1.42246 6.58229 1.58527 6.58229 1.76845C6.67084 1.77252 6.74399 1.78066 6.81713 1.78066C7.75265 1.78066 8.68816 1.78066 9.62368 1.78066C9.90087 1.78066 9.99326 1.87835 9.99711 2.16735C10.001 2.42379 10.001 2.6843 9.99711 2.94074C9.99326 3.2094 9.89702 3.31116 9.64678 3.31116C6.55149 3.31116 3.45236 3.31116 0.357074 3.31116C0.106834 3.31116 0.00673725 3.2094 0.00288739 2.94481C-0.000962464 2.6843 -0.000962464 2.41972 0.00288739 2.15514C0.00673725 1.88242 0.106834 1.78473 0.372474 1.78473C1.30029 1.78473 2.23195 1.78473 3.15977 1.78473C3.23677 1.78473 3.30991 1.78473 3.41771 1.78473ZM5.97016 1.77252C5.97016 1.64226 5.97401 1.53643 5.97016 1.4306C5.95476 1.223 5.83542 1.09275 5.63523 1.08868C5.21174 1.08054 4.79211 1.08461 4.36862 1.08868C4.20308 1.08868 4.07988 1.17823 4.04524 1.34919C4.02214 1.48351 4.04139 1.62598 4.04139 1.77252C4.68816 1.77252 5.31184 1.77252 5.97016 1.77252Z" fill="#23A334"/>
</svg>
